<svg width="175" height="92" viewBox="0 0 175 92" fill="none" xmlns="http://www.w3.org/2000/svg">
<rect width="175" height="92" fill="#3A312A"/>
<path d="M99.9378 8.95752C113.102 13.0711 113.739 26.7935 105.857 35.7356C104.329 30.3341 99.9378 8.95752 99.9378 8.95752Z" fill="#FFC107"/>
<path d="M110.438 27.2145C112.345 19.7217 109.332 11.8931 99.9381 8.95776C99.9381 8.95776 100.311 10.7748 100.878 13.4811C107.556 16.133 110.523 21.4981 110.438 27.2145Z" fill="#FFF3F3"/>
<path d="M58.9425 69.187C55.6655 69.187 53.009 66.6708 53.009 63.567C53.009 60.4632 55.6655 57.947 58.9425 57.947C62.2195 57.947 64.876 60.4632 64.876 63.567C64.876 66.6708 62.2195 69.187 58.9425 69.187Z" fill="#FFE8A2"/>
<path d="M107.283 29.6037H104.176C103.934 29.6037 103.697 29.6242 103.463 29.6537C103.348 20.3462 96.7138 12.1377 85.2452 13.5106C85.2452 13.5106 94.3466 25.1722 99.7775 31.7745C99.1642 32.6017 98.8011 33.6074 98.8011 34.6952V41.6837C68.4308 34.749 54.9327 65.8321 64.5838 79.4751C65.844 81.2565 67.9931 82.2895 70.257 82.2895H81.5955V75.1045C98.2641 75.0008 103.306 68.2512 105.46 65.0572C107.167 62.5266 109.898 56.1388 109.59 51.61H118.471C120.966 51.61 122.988 49.6945 122.988 47.3317V44.4792C122.988 36.2636 115.957 29.6037 107.283 29.6037Z" fill="#FFC107"/>
<path d="M96.8179 27.4242C93.4985 23.3887 88.8078 17.4633 85.6623 13.4656C85.5235 13.4795 85.3848 13.4936 85.2448 13.5103C85.2448 13.5103 91.3627 21.349 96.5596 27.8117C96.6405 27.6794 96.7254 27.5492 96.8179 27.4242Z" fill="#FFE8A2"/>
<path d="M118.813 34.3829C119.596 36.151 120.029 38.092 120.029 40.1291V42.9815C120.029 45.3443 118.007 47.2598 115.512 47.2598H108.151C107.342 47.2598 106.677 47.861 106.638 48.6264C106.418 52.9927 104.042 58.422 102.501 60.7067C100.347 63.9007 95.3051 70.6504 78.6365 70.7541V77.9391H67.2977C65.6976 77.9391 64.1562 77.4209 62.9443 76.4894C63.3729 77.5193 63.898 78.4913 64.5229 79.3883C65.7906 81.209 67.9544 82.2894 70.257 82.2894H81.5955V75.1043C98.2641 75.0007 103.306 68.251 105.46 65.057C107.167 62.5264 109.898 56.1386 109.59 51.6098H118.471C120.966 51.6098 122.988 49.6944 122.988 47.3316V44.4791C122.988 40.5812 121.403 37.0353 118.813 34.3829Z" fill="#FFE8A2"/>
<path d="M100.107 44.3402C101.04 44.5111 101.905 43.8309 101.905 42.9307V37.7219C101.905 37.5407 101.916 37.3617 101.935 37.1853C102.164 35.1322 101.472 33.0818 100.149 31.4408C94.8566 24.874 88.3498 16.537 88.3498 16.537C93.1219 15.9657 97.056 17.0545 100.033 19.1896C96.9661 15.163 91.9261 12.7102 85.2447 13.5101C85.2447 13.5101 94.3462 25.1718 99.777 31.774C99.1637 32.6012 98.8006 33.6069 98.8006 34.6947V41.6832C68.4303 34.7486 54.9322 65.8317 64.5833 79.4746C65.2211 80.3762 66.0871 81.0852 67.0797 81.5665C58.8181 67.783 71.6655 39.1307 100.107 44.3402Z" fill="#FFF3F3"/>
<path d="M95.5069 63.1305V76.391C99.5375 76.391 103.031 77.5822 103.031 82.2889C100.523 82.2889 87.2666 82.2889 87.2666 82.2889V67.6107L95.5069 63.1305Z" fill="#FFC107"/>
<path d="M87.2661 78.7662V82.2889C87.2661 82.2889 100.522 82.2889 103.03 82.2889C103.03 80.7772 102.668 79.6295 102.046 78.7662C98.1248 78.7662 87.2661 78.7662 87.2661 78.7662Z" fill="#FFE8A2"/>
<path d="M62.2236 60.7357C65.5399 52.7613 79.5201 46.7882 88.2342 57.9469C92.6285 63.8598 88.3669 73.1135 80.9635 76.3137C88.7709 76.3137 90.0356 78.5161 90.0356 82.2889C87.768 82.2889 69.6247 82.2889 69.6247 82.2889C63.6985 82.2889 62.6527 77.4705 62.2236 76.2874C60.5202 70.7555 60.5043 65.5251 62.2236 60.7357Z" fill="#FFC107"/>
<path d="M69.6247 78.8061C63.6985 78.8061 62.6526 73.9874 62.2236 72.8046C61.56 70.6496 61.1562 68.5409 61.0076 66.4857C60.7724 69.6185 61.1795 72.8958 62.2236 76.2872C62.6526 77.4703 63.6985 82.2887 69.6247 82.2887C69.6247 82.2887 87.768 82.2887 90.0356 82.2887C90.0356 80.9063 89.8641 79.7357 89.2647 78.8061C85.1327 78.8061 69.6247 78.8061 69.6247 78.8061Z" fill="#FFE8A2"/>
<path d="M62.2236 64.4869C65.5399 56.5125 79.5201 50.5395 88.2342 61.6981C89.0706 62.8234 89.5914 64.0702 89.8388 65.3727C90.2939 62.7571 89.8532 60.1253 88.2342 57.9469C79.5201 46.7882 65.5399 52.7613 62.2236 60.7357C61.1595 63.7002 60.7617 66.8341 61.0159 70.1035C61.1721 68.1732 61.5731 66.2984 62.2236 64.4869Z" fill="#FFF3F3"/>
<path d="M58.9431 56.9894C60.2533 56.9894 61.5211 57.3371 62.615 57.9836C62.7158 57.8393 62.8197 57.6964 62.9268 57.5549C63.8244 55.5057 64.9612 53.5108 66.3397 51.6367C73.4557 41.9623 84.8661 37.937 97.7905 40.4872V34.6952C97.7905 33.6897 98.0513 32.7148 98.5498 31.8384C93.1339 25.2244 84.5214 14.1931 84.4327 14.0794C84.2194 13.8061 84.1749 13.4461 84.3162 13.1338C84.4575 12.8212 84.763 12.6032 85.1187 12.5606C90.2825 11.9423 94.8603 13.1424 98.3603 16.0305C99.3382 16.8376 100.208 17.767 100.968 18.7904C99.854 13.5555 98.9612 9.21337 98.9463 9.14037C98.8778 8.80673 99.0012 8.46375 99.2703 8.23901C99.5394 8.01427 99.9141 7.94175 100.255 8.04825C105.015 9.53576 108.536 12.3404 110.438 16.1588C112.315 19.9282 112.482 24.5636 110.94 29.0321C118.404 30.616 124 36.9383 124 44.479V47.3314C124 50.2184 121.52 52.5671 118.473 52.5671H110.624C110.541 57.3486 107.861 63.2774 106.313 65.5722C105.202 67.2201 102.648 71.0064 96.5185 73.5143V75.4606C102.705 75.8024 104.042 79.3169 104.042 82.2888C104.042 82.8175 103.59 83.2462 103.032 83.2462H90.0369H90.0366H81.6015C81.5998 83.2462 81.5982 83.2466 81.5967 83.2466H70.2579C70.2524 83.2466 70.247 83.2462 70.2415 83.2462H69.6259C63.4287 83.2462 61.8834 78.484 61.376 76.9191C61.3354 76.7935 61.3005 76.6851 61.2689 76.5982C61.2636 76.5841 61.259 76.5697 61.2545 76.5554C60.5725 74.341 60.1568 72.1747 60.0019 70.0639C59.6534 70.1144 59.3007 70.1443 58.9441 70.1443C55.1151 70.1443 51.9999 67.1937 51.9999 63.567C51.9986 59.94 55.1138 56.9894 58.9431 56.9894ZM108.609 16.976C107.175 14.0969 104.66 11.8703 101.28 10.4673C102.012 13.9971 103.756 22.337 105.18 28.6465H107.283C107.835 28.6465 108.38 28.6735 108.918 28.7231C110.408 24.628 110.306 20.3839 108.609 16.976ZM95.5067 77.3483C94.9485 77.3483 94.4959 76.9196 94.4959 76.3909V72.8743C94.4959 72.8654 94.4957 72.8566 94.4959 72.8479V63.1304C94.4959 62.6017 94.9485 62.173 95.5067 62.173C96.0649 62.173 96.5174 62.6017 96.5174 63.1304V71.4107C101.491 69.1602 103.568 66.0851 104.609 64.5416C106.096 62.3358 108.882 56.0974 108.581 51.6714C108.563 51.4072 108.661 51.148 108.853 50.9551C109.044 50.7619 109.31 50.6526 109.59 50.6526H118.472C120.405 50.6526 121.978 49.1629 121.978 47.3317V44.4792C121.978 36.8047 115.386 30.5612 107.283 30.5612H104.177C104.006 30.5612 103.822 30.5744 103.597 30.6029C103.31 30.6383 103.021 30.5569 102.802 30.3777C102.583 30.1984 102.456 29.939 102.453 29.6649C102.392 24.71 100.416 20.2669 97.0324 17.4745C94.3794 15.2852 90.9893 14.2113 87.1423 14.3269C89.72 17.6169 96.3166 26.009 100.575 31.1864C100.848 31.5186 100.86 31.9805 100.605 32.325C100.086 33.0243 99.8123 33.8441 99.8123 34.6954V41.6837C99.8123 41.9771 99.6703 42.2543 99.4269 42.436C99.1836 42.6174 98.8657 42.6834 98.5645 42.6145C85.9819 39.7414 74.841 43.429 67.9986 52.7315C67.8162 52.9794 67.639 53.2303 67.4654 53.4833C69.5762 52.1805 71.9949 51.2856 74.4771 50.9762C80.1023 50.2756 85.2764 52.5486 89.0613 57.396C91.0088 60.0168 91.5275 63.3954 90.5221 66.9096C90.0536 68.5472 89.2811 70.1137 88.2777 71.5356V76.63C89.9919 77.5766 90.8319 79.0962 91.0095 81.3317H101.961C101.599 78.5857 99.5664 77.3483 95.5067 77.3483ZM86.2296 73.924C86.2382 73.9231 86.2473 73.9226 86.2559 73.9219V73.8991C86.247 73.9075 86.2382 73.9157 86.2296 73.924ZM86.2559 75.8443C86.2324 75.8464 86.2084 75.8481 86.1849 75.8502C86.2086 75.856 86.2324 75.8617 86.2559 75.8675V75.8443ZM86.9023 78.1008C86.877 78.0914 86.853 78.0804 86.8287 78.0694C85.632 77.5546 83.7929 77.271 80.9637 77.271C80.4882 77.271 80.077 76.957 79.976 76.5171C79.8751 76.0771 80.1114 75.6296 80.544 75.4427C82.8713 74.4367 84.9163 72.7618 86.4171 70.7255C86.429 70.708 86.4421 70.6917 86.4552 70.675C87.4064 69.3729 88.1364 67.9256 88.5708 66.4084C89.4163 63.4538 89.0031 60.6444 87.4218 58.5159C84.1077 54.2714 79.605 52.2684 74.7404 52.8741C70.807 53.3643 67.0596 55.5088 64.7611 58.4096C61.6543 65.6792 61.7528 73.7529 65.4234 78.9416C66.4792 80.4339 68.2788 81.3259 70.2405 81.3309H88.9966C88.8957 79.9205 88.4712 78.8033 86.9023 78.1008ZM58.9431 68.2296C59.2779 68.2296 59.6077 68.1944 59.9311 68.1319C59.9402 65.4602 60.3847 62.8856 61.2671 60.4275C61.2724 60.4132 61.2777 60.3988 61.2836 60.3849C61.3856 60.1394 61.4988 59.8969 61.6184 59.6566C60.8262 59.1698 59.9018 58.9044 58.9431 58.9044C56.2287 58.9044 54.0204 60.996 54.0204 63.567C54.0202 66.1377 56.2284 68.2296 58.9431 68.2296Z" fill="#402943"/>
<path d="M114.819 40.0331C114.261 40.0331 113.808 39.6045 113.808 39.0758C113.808 38.547 114.261 38.1184 114.819 38.1184C115.377 38.1184 115.83 38.547 115.83 39.0758C115.83 39.6045 115.377 40.0331 114.819 40.0331Z" fill="#402943"/>
</svg>
