<svg width="175" height="92" viewBox="0 0 175 92" fill="none" xmlns="http://www.w3.org/2000/svg">
<rect width="175" height="92" fill="#3A312A"/>
<path d="M88.2231 81.1667C68.8011 81.1667 53 65.4283 53 46.0833C53 26.7384 68.8011 11 88.2231 11C107.645 11 123.446 26.7384 123.446 46.0833C123.446 65.4283 107.645 81.1667 88.2231 81.1667ZM88.2231 13.8067C70.3548 13.8067 55.8178 28.286 55.8178 46.0833C55.8178 63.8807 70.3548 78.36 88.2231 78.36C106.091 78.36 120.628 63.8807 120.628 46.0833C120.628 28.286 106.091 13.8067 88.2231 13.8067Z" fill="#FFC107"/>
<path d="M88.2232 72.7466C73.4624 72.7466 61.4536 60.7854 61.4536 46.0833C61.4536 31.3811 73.4624 19.4199 88.2232 19.4199C102.984 19.4199 114.993 31.3811 114.993 46.0833C114.993 60.7854 102.984 72.7466 88.2232 72.7466ZM88.2232 22.2266C75.0162 22.2266 64.2715 32.9287 64.2715 46.0833C64.2715 59.2378 75.0162 69.9399 88.2232 69.9399C101.43 69.9399 112.175 59.2378 112.175 46.0833C112.175 32.9287 101.43 22.2266 88.2232 22.2266Z" fill="#FFC107"/>
<path d="M88.223 62.9233L71.3159 46.0833L79.7695 37.6633H96.6766L105.13 46.0833L88.223 62.9233Z" fill="white"/>
<path d="M88.2233 64.9079L69.3237 46.0833L79.1862 36.26H97.2607L107.123 46.0833L88.2233 64.9079ZM73.3087 46.0833L88.2233 60.9387L103.138 46.0833L96.0933 39.0667H80.3536L73.3087 46.0833Z" fill="#FFC107"/>
<path d="M105.13 44.6801H71.3159V47.4867H105.13V44.6801Z" fill="#FFC107"/>
<path d="M88.2232 63.7199C87.4942 63.7199 86.8497 63.2573 86.6195 62.5683L78.4331 38.1071L81.1061 37.2196L88.2232 58.4854L95.3402 37.2196L98.0132 38.1071L89.8268 62.5683C89.5966 63.2571 88.9521 63.7199 88.2232 63.7199Z" fill="#FFC107"/>
<path d="M89.6318 29.2433H86.814V33.4533H89.6318V29.2433Z" fill="#FFC107"/>
<path d="M104.134 33.8648L101.316 36.6714L103.308 38.6558L106.126 35.8492L104.134 33.8648Z" fill="#FFC107"/>
<path d="M72.3121 33.8644L70.3198 35.8488L73.1376 38.6554L75.1299 36.671L72.3121 33.8644Z" fill="#FFC107"/>
</svg>
