<svg width="175" height="92" viewBox="0 0 175 92" fill="none" xmlns="http://www.w3.org/2000/svg">
<rect width="175" height="92" fill="#3A312A"/>
<path d="M67.0363 49.8165C66.7647 53.0503 63.4053 53.561 63.4053 53.561C66.29 53.6971 67.0087 57.4925 67.0087 57.4925C67.0703 54.7864 70.7225 53.521 70.7225 53.521C67.9864 53.3568 67.0363 49.8165 67.0363 49.8165Z" fill="#D6DF58"/>
<path d="M70.7471 53.1021C68.3483 52.9581 67.4484 49.7396 67.4394 49.7069C67.3862 49.5103 67.1991 49.38 66.9981 49.3988C66.796 49.4172 66.6362 49.5783 66.6192 49.781C66.3795 52.6376 63.4652 53.1267 63.3423 53.1457C63.1296 53.1781 62.9762 53.3669 62.9874 53.5822C62.9985 53.7978 63.1706 53.9695 63.3855 53.9796C65.9022 54.0985 66.5911 57.5361 66.5978 57.5711C66.636 57.7699 66.8094 57.9114 67.0082 57.9114C67.0199 57.9114 67.0316 57.9108 67.0433 57.91C67.2563 57.8921 67.4216 57.7162 67.4266 57.5017C67.481 55.1222 70.8257 53.9287 70.8594 53.917C71.0476 53.8515 71.1639 53.6614 71.1365 53.4634C71.1089 53.2651 70.9461 53.1138 70.7471 53.1021ZM66.9652 55.9953C66.5869 55.1197 65.9315 54.0638 64.85 53.5129C65.6672 53.1203 66.6368 52.4186 67.1367 51.1997C67.5691 52.0585 68.3073 53.1236 69.4601 53.639C68.6215 54.0973 67.5301 54.8708 66.9652 55.9953Z" fill="#3A312A"/>
<path d="M60.9872 54.5652C60.7951 56.8524 58.4189 57.2134 58.4189 57.2134C60.4592 57.3096 60.9677 59.9942 60.9677 59.9942C61.0112 58.0803 63.5945 57.1852 63.5945 57.1852C61.6591 57.0691 60.9872 54.5652 60.9872 54.5652Z" fill="#D6DF58"/>
<path d="M63.6188 56.7665C62.0112 56.6701 61.3962 54.4774 61.3904 54.4553C61.3371 54.259 61.152 54.1287 60.9493 54.1471C60.7472 54.1653 60.5872 54.3269 60.5701 54.5297C60.4087 56.4508 58.4382 56.7853 58.356 56.7984C58.1432 56.8309 57.9899 57.0196 58.0011 57.235C58.0122 57.4506 58.1842 57.6223 58.3992 57.6323C60.0817 57.7117 60.5523 60.0498 60.5568 60.0728C60.5944 60.2722 60.7684 60.4139 60.9671 60.4139C60.9789 60.4139 60.9903 60.4134 61.002 60.4125C61.2153 60.3949 61.3806 60.2188 61.3856 60.004C61.4219 58.4075 63.7085 57.5895 63.7308 57.5817C63.9196 57.5163 64.0358 57.3264 64.0085 57.1281C63.9809 56.9299 63.8178 56.7783 63.6188 56.7665ZM60.9468 58.6667C60.6892 58.1393 60.2944 57.563 59.707 57.1902C60.2244 56.8991 60.7377 56.455 61.065 55.8155C61.3597 56.3395 61.8049 56.9212 62.4425 57.2763C61.9265 57.5839 61.3304 58.0423 60.9468 58.6667Z" fill="#3A312A"/>
<path d="M60.9764 47.1105C60.7932 49.3985 58.4185 49.769 58.4185 49.769C60.4592 49.8574 60.9781 52.5398 60.9781 52.5398C61.0143 50.6256 63.594 49.7204 63.594 49.7204C61.658 49.6119 60.9764 47.1105 60.9764 47.1105Z" fill="#D6DF58"/>
<path d="M63.617 49.3016C62.0147 49.2119 61.39 47.0371 61.3794 46.9996C61.3258 46.8036 61.1396 46.6721 60.9372 46.6931C60.7351 46.7118 60.5756 46.8738 60.5594 47.0771C60.4055 48.9991 58.4364 49.3413 58.3539 49.3548C58.1415 49.388 57.9887 49.5774 58.0007 49.7924C58.0126 50.008 58.1855 50.1792 58.4002 50.1884C60.083 50.2611 60.5628 52.597 60.5672 52.6199C60.6057 52.8184 60.7791 52.9594 60.9773 52.9594C60.9893 52.9594 61.0016 52.9588 61.0139 52.9577C61.2271 52.9392 61.3919 52.7625 61.3958 52.5477C61.4259 50.9513 63.709 50.1243 63.7315 50.1165C63.9197 50.0505 64.0354 49.8601 64.0076 49.6618C63.9797 49.4638 63.816 49.3128 63.617 49.3016ZM60.9522 51.2124C60.6924 50.6859 60.2957 50.1112 59.7066 49.7407C60.2226 49.4473 60.7345 49.001 61.059 48.3604C61.3557 48.8833 61.8031 49.4633 62.4424 49.8156C61.928 50.1257 61.3334 50.5866 60.9522 51.2124Z" fill="#3A312A"/>
<path d="M96.0905 60.5379H90.5383V56.9184C89.0024 57.9864 87.4136 58.6164 85.8715 58.6164C84.3925 58.6164 82.8316 57.9802 81.3024 56.8994H81.2082V60.5376H75.6529C71.0116 60.5376 67.2495 64.3111 67.2495 68.9666V76.6051H104.494V68.9666C104.494 64.3114 100.732 60.5379 96.0905 60.5379Z" fill="#F7E3C7"/>
<path d="M96.0912 60.1184H90.9572V56.9187C90.9572 56.7626 90.871 56.6195 90.733 56.547C90.5953 56.4749 90.4291 56.4849 90.3009 56.5742C88.7519 57.6511 87.262 58.1972 85.8725 58.1972C84.541 58.1972 83.0846 57.6452 81.5443 56.5568C81.4737 56.507 81.3895 56.4805 81.3034 56.4805H81.2092C80.978 56.4805 80.791 56.6684 80.791 56.8999V60.1189H75.6536C70.7895 60.1189 66.832 64.0882 66.832 68.9677V76.6062C66.832 76.8377 67.0191 77.0256 67.2502 77.0256H72.7971C73.0282 77.0256 73.2153 76.8377 73.2153 76.6062C73.2153 76.3746 73.0282 76.1867 72.7971 76.1867H67.6684V68.9677C67.6684 64.551 71.2506 60.9578 75.6536 60.9578H81.2089C81.44 60.9578 81.6271 60.7699 81.6271 60.5384V57.6214C83.1086 58.5607 84.534 59.0364 85.8723 59.0364C87.2325 59.0364 88.6585 58.5848 90.1208 57.6924V60.5384C90.1208 60.7699 90.3079 60.9578 90.539 60.9578H96.0912C100.494 60.9578 104.076 64.551 104.076 68.9677V76.1867H76.6445C76.4133 76.1867 76.2263 76.3746 76.2263 76.6062C76.2263 76.8377 76.4133 77.0256 76.6445 77.0256H104.495C104.726 77.0256 104.913 76.8377 104.913 76.6062V68.9677C104.913 64.0879 100.955 60.1184 96.0912 60.1184Z" fill="#3A312A"/>
<path d="M96.0898 60.5366H94.5954L94.6261 60.559L85.872 65.9897L77.1178 60.559L77.1485 60.5366H75.6542C71.0123 60.5366 67.2485 64.3118 67.2485 68.9679V76.605H104.495V68.9679C104.495 64.3118 100.732 60.5366 96.0898 60.5366Z" fill="#FFC107"/>
<path d="M96.0905 60.1169H94.5961C94.4562 60.1169 94.3285 60.1869 94.2518 60.2982L85.8727 65.4962L77.4935 60.2982C77.4169 60.1869 77.2892 60.1169 77.1492 60.1169H75.6549C70.7894 60.1169 66.8311 64.0873 66.8311 68.9677V76.6047C66.8311 76.8363 67.0181 77.0242 67.2492 77.0242H72.7972C73.0284 77.0242 73.2154 76.8363 73.2154 76.6047C73.2154 76.3732 73.0284 76.1853 72.7972 76.1853H67.6674V68.9677C67.6674 64.5499 71.2505 60.9559 75.6549 60.9559H76.9635L85.6527 66.346C85.7874 66.4296 85.958 66.4296 86.0926 66.346L94.7818 60.9559H96.0905C100.495 60.9559 104.078 64.5501 104.078 68.9677V76.1853H76.6446C76.4135 76.1853 76.2264 76.3732 76.2264 76.6047C76.2264 76.8363 76.4135 77.0242 76.6446 77.0242H104.496C104.727 77.0242 104.914 76.8363 104.914 76.6047V68.9677C104.914 64.0876 100.956 60.1169 96.0905 60.1169Z" fill="#3A312A"/>
<path fill-rule="evenodd" clip-rule="evenodd" d="M71.442 36.3257C69.6159 36.3257 68.1353 37.8106 68.1353 39.6425C68.1353 41.4745 69.6156 42.9591 71.442 42.9591C73.2681 42.9591 74.7485 41.4742 74.7485 39.6425C74.7485 37.8109 73.2684 36.3257 71.442 36.3257Z" fill="#F7E3C7"/>
<path d="M71.442 35.9061C69.3881 35.9061 67.7173 37.5823 67.7173 39.6424C67.7173 41.7026 69.3884 43.3785 71.442 43.3785C73.4956 43.3785 75.1667 41.7023 75.1667 39.6424C75.1667 37.5823 73.4958 35.9061 71.442 35.9061ZM71.442 42.5396C69.8492 42.5396 68.5537 41.2401 68.5537 39.6424C68.5537 38.0448 69.8495 36.7451 71.442 36.7451C73.0344 36.7451 74.3303 38.0448 74.3303 39.6424C74.3303 41.2401 73.0347 42.5396 71.442 42.5396Z" fill="#3A312A"/>
<path fill-rule="evenodd" clip-rule="evenodd" d="M100.303 36.3257C98.477 36.3257 96.9966 37.8106 96.9966 39.6425C96.9966 41.4745 98.477 42.9591 100.303 42.9591C102.129 42.9591 103.61 41.4742 103.61 39.6425C103.61 37.8109 102.129 36.3257 100.303 36.3257Z" fill="#F7E3C7"/>
<path d="M100.303 35.9061C98.2494 35.9061 96.5786 37.5823 96.5786 39.6424C96.5786 41.7026 98.2497 43.3785 100.303 43.3785C102.357 43.3785 104.028 41.7023 104.028 39.6424C104.028 37.5823 102.357 35.9061 100.303 35.9061ZM100.303 42.5396C98.7106 42.5396 97.415 41.2401 97.415 39.6424C97.415 38.0448 98.7106 36.7451 100.303 36.7451C101.896 36.7451 103.192 38.0448 103.192 39.6424C103.192 41.2401 101.896 42.5396 100.303 42.5396Z" fill="#3A312A"/>
<path d="M101.213 30.2285C101.213 26.3191 99.6043 22.7704 96.9864 20.153C97.1453 20.6088 97.229 21.0702 97.229 21.526C97.229 23.0696 96.1696 24.479 94.4243 25.5473C94.7867 26.1513 95.2384 26.705 95.7681 27.1916C98.4222 29.6245 100.176 33.025 100.483 36.8337C100.522 36.7806 100.608 36.7526 100.675 36.7274C101.302 36.4981 101.213 30.7319 101.213 30.2285Z" fill="#87796F"/>
<path d="M101.632 30.4069L101.631 30.2288C101.631 26.3443 100.087 22.6605 97.2818 19.8563C97.1436 19.7184 96.9286 19.6943 96.7638 19.7984C96.5988 19.9027 96.5274 20.1071 96.5918 20.2919C96.7371 20.7089 96.811 21.1242 96.811 21.5266C96.811 22.8607 95.8862 24.1619 94.2067 25.1899C94.0105 25.3101 93.9477 25.5666 94.0662 25.7643C94.4504 26.4047 94.928 26.9891 95.4861 27.502C98.1497 29.9433 99.7759 33.2697 100.066 36.8681C100.08 37.0426 100.201 37.19 100.368 37.2378C100.406 37.2487 100.444 37.2537 100.483 37.2537C100.588 37.2537 100.691 37.2135 100.769 37.1402C100.779 37.136 100.79 37.1327 100.801 37.1287C100.801 37.1287 100.813 37.124 100.819 37.122C101.182 36.9889 101.678 36.8046 101.632 30.4069ZM100.669 35.1173C100.055 31.9598 98.4503 29.082 96.0507 26.8826C95.6537 26.5179 95.3024 26.1127 95.0027 25.6742C96.712 24.5207 97.6473 23.0596 97.6473 21.5263V21.5039C99.6864 23.9869 100.795 27.0367 100.795 30.2288L100.796 30.4131C100.813 32.8074 100.749 34.2495 100.669 35.1173Z" fill="#3A312A"/>
<path d="M95.7682 27.1889C95.2385 26.7051 94.7869 26.1514 94.4244 25.5502C92.3837 26.803 89.4006 27.5944 86.0773 27.5944C85.2884 27.5944 84.5189 27.5496 83.7745 27.4629C78.4328 26.8533 73.3114 30.0496 71.6191 35.1699C71.4546 35.6621 71.3403 36.1347 71.2873 36.5737C71.279 36.6353 71.2734 36.6968 71.2678 36.7583C71.2344 37.1778 71.2148 37.6028 71.2148 38.0335C71.2148 46.1515 79.3222 58.6181 85.8738 58.6181C92.7349 58.6181 100.53 46.1515 100.53 38.0335C100.53 33.7381 98.6955 29.8763 95.7682 27.1889Z" fill="#F7E3C7"/>
<path d="M96.05 26.8788C95.5543 26.4257 95.1278 25.9059 94.7826 25.3332C94.7249 25.2375 94.6318 25.169 94.5236 25.1424C94.4157 25.1162 94.3011 25.1341 94.2064 25.1922C92.1542 26.452 89.1911 27.1746 86.0776 27.1746C85.3148 27.1746 84.5562 27.1313 83.8221 27.046C78.263 26.4098 72.9628 29.7725 71.2229 35.0365C71.0453 35.5681 70.9273 36.0684 70.8733 36.5172C70.8641 36.5849 70.8579 36.6523 70.8512 36.7247C70.8147 37.1822 70.7969 37.6104 70.7969 38.0335C70.7969 41.9773 72.6924 47.1787 75.7435 51.6085C78.948 56.2604 82.7348 59.0372 85.8738 59.0372C89.1777 59.0372 92.9125 56.3286 96.1203 51.6063C99.0983 47.2223 100.948 42.0218 100.948 38.0335C100.948 33.8025 99.1636 29.737 96.05 26.8788ZM95.4297 51.1339C92.4249 55.5574 88.8527 58.1986 85.8743 58.1986C83.01 58.1986 79.4802 55.5568 76.4321 51.1317C73.4725 46.835 71.6338 41.8159 71.6338 38.0338C71.6338 37.6333 71.6508 37.2273 71.6851 36.7966C71.6901 36.7412 71.6951 36.6859 71.7032 36.6243C71.7512 36.2259 71.8566 35.7815 72.0169 35.3022C73.502 30.8086 77.7807 27.8086 82.4747 27.8086C82.8896 27.8086 83.3075 27.8321 83.7271 27.8799C84.4921 27.9688 85.283 28.0141 86.0781 28.0141C89.1691 28.0141 92.1332 27.3256 94.2903 26.1156C94.6329 26.6212 95.0341 27.0851 95.4869 27.4984C98.4267 30.1973 100.113 34.0374 100.113 38.0338C100.112 41.8624 98.318 46.882 95.4297 51.1339Z" fill="#3A312A"/>
<path d="M80.6969 36.4314C79.9068 36.4314 79.2661 37.074 79.2661 37.8665C79.2661 38.659 79.9068 39.3017 80.6969 39.3017C81.487 39.3017 82.1277 38.659 82.1277 37.8665C82.1277 37.074 81.4873 36.4314 80.6969 36.4314Z" fill="#3A312A"/>
<path d="M91.0475 36.4314C90.2574 36.4314 89.6167 37.074 89.6167 37.8665C89.6167 38.659 90.2571 39.3017 91.0475 39.3017C91.8379 39.3017 92.4782 38.659 92.4782 37.8665C92.4782 37.074 91.8379 36.4314 91.0475 36.4314Z" fill="#3A312A"/>
<path d="M77.8376 40.2848C76.4765 40.2848 75.373 41.1123 75.373 42.133C75.373 43.1537 76.4765 43.9811 77.8376 43.9811C79.1989 43.9811 80.3024 43.1537 80.3024 42.133C80.3024 41.1123 79.1989 40.2848 77.8376 40.2848Z" fill="#F59689"/>
<path d="M93.9074 43.9811C95.2685 43.9811 96.3719 43.1537 96.3719 42.133C96.3719 41.1122 95.2685 40.2848 93.9074 40.2848C92.5463 40.2848 91.4429 41.1122 91.4429 42.133C91.4429 43.1537 92.5463 43.9811 93.9074 43.9811Z" fill="#F59689"/>
<path d="M90.0693 47.0373C89.8538 46.956 89.6118 47.0659 89.531 47.2829C89.2396 48.0633 88.0996 49.5393 85.8721 49.5393C84.1318 49.5393 82.9302 48.7904 82.1992 47.2496C82.1 47.0404 81.8508 46.9523 81.6419 47.051C81.4334 47.1506 81.3447 47.4009 81.444 47.61C82.3155 49.4467 83.8054 50.378 85.8721 50.378C88.2053 50.378 89.81 48.9261 90.3141 47.5768C90.3952 47.3603 90.2857 47.1184 90.0693 47.0373Z" fill="#3A312A"/>
<path d="M87.26 14.2481C82.3022 13.9374 77.9159 16.2369 75.7712 18.3155C72.5338 20.983 70.8691 25.8136 70.8691 30.2278C70.8691 31.0345 71.011 35.6238 71.2678 36.7591C71.3096 36.2689 71.434 35.7331 71.6202 35.1694C73.3111 30.0505 78.4339 26.8528 83.7756 27.4635C84.5183 27.5485 85.2884 27.593 86.0776 27.593C92.2362 27.593 97.2288 24.8771 97.2288 21.5267C97.2288 18.1762 92.6664 14.5873 87.26 14.2481Z" fill="#87796F"/>
<path d="M87.2859 13.8294C82.4349 13.526 77.8716 15.7041 75.4924 18.002C72.3822 20.5739 70.4507 25.2565 70.4507 30.228C70.4507 31.0412 70.5881 35.6506 70.8597 36.8522C70.9032 37.0446 71.0735 37.1788 71.2673 37.1788C71.277 37.1788 71.2865 37.1786 71.2963 37.178C71.502 37.1637 71.6665 37.0013 71.6843 36.7954C71.7214 36.3598 71.8335 35.8575 72.0169 35.3016C73.6326 30.4106 78.5566 27.2887 83.728 27.8804C84.4955 27.9682 85.2859 28.0127 86.0771 28.0127C92.5646 28.0127 97.6465 25.1637 97.6465 21.5269C97.6465 17.8384 92.7082 14.1695 87.2859 13.8294ZM86.0771 27.1737C85.3174 27.1737 84.559 27.131 83.8228 27.0468C78.4839 26.4349 73.3861 29.5099 71.4479 34.4162C71.3459 32.775 71.2871 30.8183 71.2871 30.2277C71.2871 25.5655 73.1514 21.0168 76.0366 18.6396C76.0452 18.6323 76.0536 18.625 76.0617 18.6169C78.1635 16.58 82.0912 14.6395 86.3645 14.6395C86.6525 14.6395 86.943 14.6482 87.2338 14.6667C92.7149 15.0103 96.8101 18.5719 96.8101 21.5266C96.8101 24.6407 91.9953 27.1737 86.0771 27.1737Z" fill="#3A312A"/>
<path d="M85.8721 71.3098C86.6035 71.3098 87.1964 70.7151 87.1964 69.9815C87.1964 69.2479 86.6035 68.6532 85.8721 68.6532C85.1407 68.6532 84.5479 69.2479 84.5479 69.9815C84.5479 70.7151 85.1407 71.3098 85.8721 71.3098Z" fill="#3A312A"/>
<path d="M85.8721 75.3407C86.6035 75.3407 87.1964 74.746 87.1964 74.0124C87.1964 73.2788 86.6035 72.6841 85.8721 72.6841C85.1407 72.6841 84.5479 73.2788 84.5479 74.0124C84.5479 74.746 85.1407 75.3407 85.8721 75.3407Z" fill="#3A312A"/>
<path d="M94.5073 14.2299H77.5165C73.8938 14.2299 70.957 17.1756 70.957 20.8093V28.4948H101.067V20.8093C101.067 17.1756 98.1299 14.2299 94.5073 14.2299Z" fill="#FFC107"/>
<path d="M94.5068 13.8104H77.5162C73.6686 13.8104 70.5386 16.9503 70.5386 20.8094V28.4948C70.5386 28.7266 70.7256 28.9143 70.9568 28.9143H88.5066C88.7377 28.9143 88.9248 28.7266 88.9248 28.4948C88.9248 28.263 88.7377 28.0753 88.5066 28.0753H71.3747V20.8094C71.3747 17.4128 74.1297 14.6494 77.5159 14.6494H94.5068C97.893 14.6494 100.648 17.4128 100.648 20.8094V28.0753H92.3453C92.1142 28.0753 91.9271 28.263 91.9271 28.4948C91.9271 28.7266 92.1142 28.9143 92.3453 28.9143H101.066C101.297 28.9143 101.484 28.7266 101.484 28.4948V20.8094C101.484 16.9503 98.3544 13.8104 94.5068 13.8104Z" fill="#3A312A"/>
<path d="M85.872 65.5701C85.6409 65.5701 85.4538 65.758 85.4538 65.9895V66.9627L80.7584 68.0664C80.5694 68.1106 80.4355 68.2801 80.4355 68.4747V76.6054C80.4355 76.8369 80.6226 77.0248 80.8537 77.0248C81.0849 77.0248 81.2719 76.8369 81.2719 76.6054V68.8072L85.9674 67.7035C86.1564 67.6593 86.2902 67.4898 86.2902 67.2952V65.9893C86.2902 65.758 86.1031 65.5701 85.872 65.5701Z" fill="#3A312A"/>
<path d="M106.644 76.5562C112.916 75.9335 117.497 70.3292 116.876 64.0387C116.255 57.7482 110.668 53.1535 104.396 53.7761C98.125 54.3988 93.5443 60.003 94.165 66.2936C94.7858 72.5841 100.373 77.1788 106.644 76.5562Z" fill="#D7E057"/>
<path d="M105.524 53.3007C99.0017 53.3007 93.6948 58.6234 93.6948 65.1662C93.6948 71.7091 99.0017 77.0318 105.524 77.0318C112.047 77.0318 117.354 71.7091 117.354 65.1662C117.354 58.6234 112.047 53.3007 105.524 53.3007ZM105.524 76.1929C99.4628 76.1929 94.5312 71.2465 94.5312 65.1662C94.5312 59.0859 99.4628 54.1396 105.524 54.1396C111.586 54.1396 116.517 59.0859 116.517 65.1662C116.517 71.2465 111.586 76.1929 105.524 76.1929Z" fill="#3A312A"/>
<path d="M112.881 60.1553C112.365 59.5818 111.483 59.5362 110.912 60.0535L103.071 67.1484L100.341 63.2817C99.8955 62.6514 99.0254 62.5027 98.3976 62.9487C97.7692 63.395 97.6206 64.2678 98.0658 64.8978L101.703 70.0486C101.933 70.3746 102.291 70.5863 102.687 70.6302C102.738 70.6358 102.789 70.6386 102.84 70.6386C103.183 70.6386 103.517 70.5114 103.774 70.2784L112.78 62.1296C113.351 61.6128 113.396 60.7286 112.881 60.1553Z" fill="#87796F"/>
<path d="M113.191 59.8742C112.867 59.5137 112.422 59.3012 111.939 59.2763C111.457 59.2525 110.991 59.4167 110.631 59.7422L103.14 66.5208L100.682 63.0389C100.402 62.6427 99.9851 62.3795 99.5078 62.2979C99.0316 62.2154 98.5504 62.3258 98.1556 62.6063C97.7606 62.8871 97.498 63.3051 97.4165 63.7839C97.3349 64.2624 97.4441 64.7445 97.7241 65.1404L101.361 70.2912C101.66 70.7149 102.126 70.9903 102.642 71.0476C102.708 71.0546 102.774 71.0585 102.839 71.0585C103.288 71.0585 103.72 70.8922 104.054 70.5904L113.059 62.4413C113.418 62.1164 113.63 61.6701 113.655 61.1852C113.68 60.7003 113.515 60.2346 113.191 59.8742ZM112.499 61.8183L103.494 69.9671C103.287 70.1542 102.998 70.242 102.733 70.2135C102.456 70.183 102.205 70.0342 102.044 69.8063L98.4071 64.6553C98.2566 64.4419 98.1977 64.1827 98.2415 63.9251C98.2853 63.6673 98.4266 63.4422 98.6396 63.2909C98.8063 63.1726 99.0009 63.1105 99.2014 63.1105C99.2566 63.1105 99.3123 63.1155 99.3675 63.1248C99.6246 63.1687 99.849 63.3107 99.9999 63.5241L102.73 67.391C102.799 67.4889 102.907 67.5521 103.025 67.5655C103.144 67.5784 103.263 67.5401 103.352 67.4601L111.192 60.365C111.386 60.1899 111.636 60.1018 111.896 60.1144C112.157 60.1278 112.396 60.2422 112.571 60.4363C112.745 60.6301 112.834 60.8809 112.82 61.1418C112.807 61.4033 112.693 61.6432 112.499 61.8183Z" fill="#3A312A"/>
<path d="M105.525 54.1393C105.202 54.1393 104.881 54.1533 104.563 54.1812C107.379 55.0118 109.743 56.9022 111.196 59.391C111.43 59.3015 111.681 59.2624 111.938 59.2763C112.423 59.3015 112.866 59.514 113.192 59.8748C113.861 60.6186 113.8 61.7708 113.058 62.4419L112.534 62.9173C112.679 63.6444 112.754 64.3966 112.754 65.1656C112.754 70.367 109.297 74.7546 104.563 76.1501C104.881 76.178 105.202 76.192 105.525 76.192C111.586 76.192 116.518 71.2451 116.518 65.1656C116.518 59.0862 111.586 54.1393 105.525 54.1393Z" fill="#B9C239"/>
</svg>
