<?xml version="1.0" encoding="UTF-8"?><svg id="Calque_2" xmlns="http://www.w3.org/2000/svg" viewBox="0 0 305.13 217.43"><defs><style>.cls-1{fill:#f1f2f2;}.cls-2{fill:#ffc107;}</style></defs><g id="Objects"><g><g><path class="cls-2" d="m0,180.3c0-1.72,1.83-2.59,3.66-2.59h11.04c5.39,0,10.78,1.94,10.78,9.59,0,4.36-1.72,7.22-4.58,8.46,3.29,1.24,5.55,3.23,5.55,8.62v1.13c0,8.51-4.74,11.58-10.83,11.58H3.66c-2.26,0-3.66-1.19-3.66-2.53v-34.27Zm8.35,12.23h5.66c2.05,0,3.07-1.89,3.07-3.72s-1.02-3.77-3.07-3.77h-5.66v7.49Zm5.39,17.24c2.69,0,4.31-1.51,4.31-4.96v-.86c0-3.66-1.62-4.96-4.31-4.96h-5.39v10.78h5.39Z"/><path class="cls-2" d="m49.4,180.25c0-1.78,2.05-2.53,4.2-2.53s4.2.75,4.2,2.53v24.46c0,9.27-5.98,12.72-13.58,12.72s-13.58-3.45-13.58-12.72v-24.46c0-1.78,2.05-2.53,4.2-2.53s4.2.75,4.2,2.53v24.46c0,3.66,1.94,5.39,5.17,5.39s5.17-1.72,5.17-5.39v-24.46Z"/><path class="cls-2" d="m63.46,180.25c0-1.35,1.02-2.53,2.59-2.53h11.15c7.38,0,13.25,2.75,13.25,11.53,0,6.03-2.75,9.48-6.52,10.94l6.57,11.91c.22.32.27.7.27.97,0,2.1-2.8,4.36-5.28,4.36-1.08,0-2.1-.43-2.69-1.56l-7.38-14.33h-3.56v12.99c0,1.72-2.1,2.59-4.2,2.59s-4.2-.86-4.2-2.59v-34.27Zm8.4,4.8v10.02h5.33c3.02,0,4.85-1.24,4.85-5.01s-1.83-5.01-4.85-5.01h-5.33Z"/><path class="cls-2" d="m107.74,185.04c-3.07,0-4.85,1.72-4.85,5.39v14.28c0,3.66,1.78,5.39,4.8,5.39s4.85-1.72,4.85-5.39v-1.83h-3.18c-1.62,0-2.53-1.56-2.53-3.23,0-1.56.92-3.23,2.53-3.23h9.05c1.62,0,2.53,1.24,2.53,2.64v5.66c0,9.27-5.82,12.72-13.25,12.72s-13.2-3.45-13.2-12.72v-14.28c0-9.27,5.87-12.72,12.93-12.72,7.7,0,13.52,3.88,13.52,10.72,0,3.23-1.35,3.99-4.2,3.99-2.26,0-4.15-.59-4.2-2.53-.05-1.94-.22-4.85-4.8-4.85Z"/><path class="cls-2" d="m134.19,194.15h8.08c1.62,0,2.53,1.56,2.53,3.29,0,1.46-.75,3.18-2.53,3.18h-8.08v9.16h14.44c1.62,0,2.53,1.72,2.53,3.72,0,1.72-.75,3.61-2.53,3.61h-19.18c-1.83,0-3.66-.86-3.66-2.59v-34.21c0-1.72,1.83-2.59,3.66-2.59h19.18c1.78,0,2.53,1.89,2.53,3.61,0,1.99-.92,3.72-2.53,3.72h-14.44v9.11Z"/><path class="cls-2" d="m154.82,180.25c0-1.35,1.02-2.53,2.59-2.53h11.15c7.38,0,13.25,2.75,13.25,11.53,0,6.03-2.75,9.48-6.52,10.94l6.57,11.91c.21.32.27.7.27.97,0,2.1-2.8,4.36-5.28,4.36-1.08,0-2.1-.43-2.69-1.56l-7.38-14.33h-3.56v12.99c0,1.72-2.1,2.59-4.2,2.59s-4.2-.86-4.2-2.59v-34.27Zm8.41,4.8v10.02h5.33c3.02,0,4.85-1.24,4.85-5.01s-1.83-5.01-4.85-5.01h-5.33Z"/></g><g><path class="cls-1" d="m199.11,185.04c-3.07,0-4.85,1.72-4.85,5.39v14.28c0,3.66,1.78,5.39,4.9,5.39,4.31,0,4.58-3.29,4.74-5.39.16-1.99,1.99-2.53,4.15-2.53,2.91,0,4.26.75,4.26,3.99,0,7.17-5.82,11.26-13.52,11.26-7.06,0-12.93-3.45-12.93-12.72v-14.28c0-9.27,5.87-12.72,12.93-12.72,7.71,0,13.52,3.88,13.52,10.72,0,3.23-1.35,3.99-4.2,3.99-2.26,0-4.09-.59-4.2-2.53-.05-1.4-.21-4.85-4.8-4.85Z"/><path class="cls-1" d="m216.13,204.71v-14.28c0-9.27,5.76-12.72,13.2-12.72s13.25,3.45,13.25,12.72v14.28c0,9.27-5.82,12.72-13.25,12.72s-13.2-3.45-13.2-12.72Zm18.05-14.28c0-3.72-1.83-5.39-4.85-5.39s-4.79,1.67-4.79,5.39v14.28c0,3.72,1.78,5.39,4.79,5.39s4.85-1.67,4.85-5.39v-14.28Z"/><path class="cls-1" d="m261.17,177.72c7.44,0,13.25,3.45,13.25,12.72v13.95c0,9.27-5.82,12.72-13.25,12.72h-9.54c-2.21,0-3.66-1.19-3.66-2.53v-34.32c0-1.35,1.46-2.53,3.66-2.53h9.54Zm-4.79,7.33v24.73h4.79c3.02,0,4.85-1.72,4.85-5.39v-13.95c0-3.66-1.83-5.39-4.85-5.39h-4.79Z"/><path class="cls-1" d="m288.16,194.15h8.08c1.62,0,2.53,1.56,2.53,3.29,0,1.46-.75,3.18-2.53,3.18h-8.08v9.16h14.44c1.62,0,2.53,1.72,2.53,3.72,0,1.72-.75,3.61-2.53,3.61h-19.18c-1.83,0-3.66-.86-3.66-2.59v-34.21c0-1.72,1.83-2.59,3.66-2.59h19.18c1.78,0,2.53,1.89,2.53,3.61,0,1.99-.92,3.72-2.53,3.72h-14.44v9.11Z"/></g></g><g><path class="cls-1" d="m125.11,125.75h-26.37c-14.07,0-21.1-7.04-21.1-21.1,0-5.83-4.72-10.55-10.55-10.55s-10.55,4.72-10.55,10.55c0,28.13,14.07,42.2,42.2,42.2h52.75c-2.11-14.07-10.9-21.1-26.37-21.1Z"/><path class="cls-1" d="m67.09,77.46c5.83,0,10.55-4.72,10.55-10.55v-.02c0-14.05,7.04-21.08,21.1-21.08h26.37c15.47,0,24.27-7.03,26.38-21.1,2.11,14.07,10.9,21.1,26.37,21.1h26.37c14.07,0,21.1,7.04,21.1,21.1,0,5.83,4.72,10.55,10.55,10.55s10.55-4.72,10.55-10.55c0-28.13-14.07-42.2-42.2-42.2h-26.37c-10.53,0-15.82-1.98-15.82-14.16,0-5.83-4.73-10.56-10.56-10.56s-10.56,4.73-10.56,10.56c0,12.07-5.28,14.16-15.82,14.16h-26.37c-28.13,0-42.2,14.07-42.2,42.2,0,5.83,4.72,10.55,10.55,10.55Z"/><path class="cls-1" d="m235.88,94.1c-5.83,0-10.55,4.72-10.55,10.55,0,14.07-7.03,21.1-21.1,21.1h-26.37c-15.48,0-24.26,7.03-26.38,21.1h52.75c28.13,0,42.2-14.07,42.2-42.2,0-5.83-4.72-10.55-10.55-10.55Z"/><path class="cls-2" d="m206.67,66.92c3.47,0,6.29-2.82,6.29-6.29s-2.81-6.29-6.29-6.29h-110.37c-3.47,0-6.29,2.81-6.29,6.29s2.82,6.29,6.29,6.29h110.37Z"/><path class="cls-2" d="m96.3,104.64c-3.47,0-6.29,2.82-6.29,6.29s2.82,6.29,6.29,6.29h110.37c3.47,0,6.29-2.81,6.29-6.29s-2.81-6.29-6.29-6.29h-110.37Z"/><path class="cls-2" d="m223.62,85.78c0-3.47-2.81-6.29-6.29-6.29H85.64c-3.47,0-6.29,2.82-6.29,6.29s2.81,6.29,6.29,6.29h131.69c3.47,0,6.29-2.81,6.29-6.29Z"/></g></g></svg>