<?xml version="1.0" encoding="UTF-8"?><svg id="Calque_2" xmlns="http://www.w3.org/2000/svg" viewBox="0 0 459.87 146.84"><defs><style>.cls-1{fill:#fff;}.cls-2{fill:#3f3f3f;}.cls-3{fill:#ffc107;}</style></defs><g id="Objects"><g><g><path class="cls-2" d="m248.2,82.38c-6.03,0-9.51,3.38-9.51,10.57v28.02c0,7.19,3.49,10.57,9.62,10.57,8.46,0,8.99-6.45,9.3-10.57.32-3.91,3.91-4.97,8.14-4.97,5.71,0,8.35,1.48,8.35,7.82,0,14.06-11.42,22.1-26.54,22.1-13.85,0-25.37-6.77-25.37-24.95v-28.02c0-18.19,11.52-24.95,25.37-24.95,15.12,0,26.54,7.61,26.54,21.04,0,6.34-2.64,7.82-8.25,7.82-4.44,0-8.03-1.16-8.25-4.97-.11-2.75-.42-9.51-9.41-9.51Z"/><path class="cls-2" d="m281.6,120.97v-28.02c0-18.19,11.31-24.95,25.9-24.95s26.01,6.77,26.01,24.95v28.02c0,18.19-11.42,24.95-26.01,24.95s-25.9-6.77-25.9-24.95Zm35.42-28.02c0-7.3-3.59-10.57-9.51-10.57s-9.41,3.28-9.41,10.57v28.02c0,7.3,3.49,10.57,9.41,10.57s9.51-3.28,9.51-10.57v-28.02Z"/><path class="cls-2" d="m369.97,68c14.59,0,26.01,6.77,26.01,24.95v27.38c0,18.19-11.42,24.95-26.01,24.95h-18.71c-4.33,0-7.19-2.33-7.19-4.97v-67.35c0-2.64,2.86-4.97,7.19-4.97h18.71Zm-9.41,14.38v48.53h9.41c5.92,0,9.52-3.38,9.52-10.57v-27.38c0-7.19-3.59-10.57-9.52-10.57h-9.41Z"/><path class="cls-2" d="m422.93,100.25h15.86c3.17,0,4.97,3.07,4.97,6.45,0,2.86-1.48,6.24-4.97,6.24h-15.86v17.97h28.33c3.17,0,4.97,3.38,4.97,7.29,0,3.38-1.48,7.08-4.97,7.08h-37.64c-3.6,0-7.19-1.69-7.19-5.07v-67.13c0-3.38,3.59-5.08,7.19-5.08h37.64c3.49,0,4.97,3.7,4.97,7.08,0,3.91-1.8,7.3-4.97,7.3h-28.33v17.87Z"/></g><g><g><path class="cls-3" d="m226.44,76.44c-4.04,0-6.15-2.36-6.15-4.69V27.48c0-2.76,2.59-4.76,6.15-4.76h14.27c9.89,0,15.34,4.9,15.34,13.81,0,4.76-1.52,8.48-4.33,10.75,3.04,1.73,5.58,4.77,5.58,11.31v1.46c0,10.57-5.47,16.38-15.41,16.38h-15.45Zm13.02-12.3c1.93,0,4.15-.57,4.15-4.99v-1.11c0-4.14-1.66-4.99-4.15-4.99h-5.54v11.09h5.54Zm.35-22.28c2.02,0,2.55-2.22,2.55-3.39,0-1.28-.54-3.46-2.55-3.46h-5.89v6.84h5.89Z"/><path class="cls-1" d="m240.71,24.14c6.96,0,13.92,2.51,13.92,12.39,0,5.64-2.23,9.33-5.92,10.93,4.25,1.6,7.17,4.18,7.17,11.14v1.46c0,11-6.13,14.97-13.99,14.97h-15.45c-2.92,0-4.73-1.53-4.73-3.27V27.48c0-2.23,2.37-3.34,4.73-3.34h14.27m-8.21,19.14h7.31c2.65,0,3.97-2.44,3.97-4.8s-1.32-4.87-3.97-4.87h-7.31v9.68m0,22.28h6.96c3.48,0,5.57-1.95,5.57-6.4v-1.11c0-4.73-2.09-6.4-5.57-6.4h-6.96v13.92m8.21-44.26h-14.27c-4.39,0-7.57,2.6-7.57,6.18v44.27c0,3.48,3.25,6.11,7.57,6.11h15.45c10.69,0,16.83-6.49,16.83-17.8v-1.46c0-6.09-2.1-9.46-4.74-11.5,2.27-2.55,3.48-6.15,3.48-10.56,0-9.68-6.11-15.23-16.76-15.23h0Zm-5.38,15.14h4.47c1.12,0,1.13,2.02,1.13,2.04s-.03,1.97-1.13,1.97h-4.47v-4.01h0Zm0,18.03h4.13c1.53,0,2.73,0,2.73,3.57v1.11c0,3.57-1.52,3.57-2.73,3.57h-4.13v-8.25h0Z"/></g><g><path class="cls-3" d="m278.85,76.86c-12.23,0-18.96-6.34-18.96-17.85v-31.6c0-2.85,2.69-4.69,6.85-4.69s6.85,1.88,6.85,4.69v31.6c0,3.78,1.67,5.54,5.27,5.54s5.27-1.76,5.27-5.54v-31.6c0-2.85,2.69-4.69,6.85-4.69s6.85,1.88,6.85,4.69v31.6c0,11.34-6.91,17.85-18.96,17.85Z"/><path class="cls-1" d="m290.96,24.14c2.65,0,5.43.98,5.43,3.27v31.6c0,11.97-7.73,16.43-17.54,16.43s-17.54-4.46-17.54-16.43v-31.6c0-2.3,2.65-3.27,5.43-3.27s5.43.98,5.43,3.27v31.6c0,4.73,2.51,6.96,6.68,6.96s6.68-2.23,6.68-6.96v-31.6c0-2.3,2.65-3.27,5.43-3.27m0-2.83c-4.94,0-8.26,2.45-8.26,6.11v31.6c0,3.43-1.54,4.13-3.85,4.13s-3.85-.7-3.85-4.13v-31.6c0-3.65-3.32-6.11-8.26-6.11s-8.26,2.45-8.26,6.11v31.6c0,12.24,7.43,19.26,20.38,19.26s20.38-7.02,20.38-19.26v-31.6c0-3.65-3.32-6.11-8.26-6.11h0Z"/></g><g><path class="cls-3" d="m332.17,76.86c-2.12,0-3.8-.99-4.74-2.78l-9.15-17.76h-2.31v15.36c0,2.8-2.82,4.76-6.85,4.76s-6.85-1.96-6.85-4.76V27.41c0-2.63,2.09-4.69,4.76-4.69h14.41c12.13,0,18.54,5.64,18.54,16.31,0,7-2.77,12.18-7.86,14.79l7.72,13.99c.45.71.55,1.47.55,1.98,0,3.5-4.16,7.06-8.24,7.06Zm-10.72-31.72c3.53,0,4.85-1.37,4.85-5.06s-1.31-5.06-4.85-5.06h-5.47v10.11h5.47Z"/><path class="cls-1" d="m321.45,24.14c9.54,0,17.12,3.55,17.12,14.9,0,7.8-3.55,12.25-8.42,14.13l8.49,15.38c.28.42.35.9.35,1.25,0,2.72-3.62,5.64-6.82,5.64-1.39,0-2.71-.56-3.48-2.02l-9.54-18.52h-4.59v16.78c0,2.23-2.71,3.34-5.43,3.34s-5.43-1.11-5.43-3.34V27.41c0-1.74,1.32-3.27,3.34-3.27h14.41m-6.89,22.42h6.89c3.9,0,6.27-1.6,6.27-6.47s-2.37-6.47-6.27-6.47h-6.89v12.95m6.89-25.25h-14.41c-3.46,0-6.18,2.68-6.18,6.11v44.27c0,3.64,3.4,6.18,8.26,6.18s8.26-2.54,8.26-6.18v-13.94h.03l8.75,16.98c1.19,2.27,3.37,3.56,6,3.56,4.87,0,9.66-4.2,9.66-8.47,0-.7-.13-1.72-.75-2.7l-7.03-12.74c3.51-2.24,7.36-6.68,7.36-15.32,0-11.43-7.09-17.73-19.96-17.73h0Zm-4.06,15.14h4.06c2.53,0,3.43.55,3.43,3.64s-.9,3.64-3.43,3.64h-4.06v-7.28h0Z"/></g><g><path class="cls-3" d="m360.84,76.86c-11.91,0-18.47-6.34-18.47-17.85v-18.45c0-11.34,6.61-17.85,18.12-17.85s18.89,6.14,18.89,15.27c0,5.79-3.46,6.57-6.85,6.57-5.84,0-6.8-2.91-6.85-4.65-.08-2.86-.47-4.89-4.78-4.89-2.08,0-4.85.58-4.85,5.54v18.45c0,4.97,2.73,5.54,4.78,5.54,3.31,0,4.85-1.76,4.85-5.54v-.95h-2.69c-2.72,0-4.69-2.35-4.69-5.59,0-2.75,1.75-5.59,4.69-5.59h11.69c2.72,0,4.69,2.03,4.69,4.83v7.31c0,11.51-6.58,17.85-18.54,17.85Z"/><path class="cls-1" d="m360.49,24.14c9.95,0,17.47,5.01,17.47,13.85,0,4.18-1.74,5.15-5.43,5.15-2.92,0-5.36-.77-5.43-3.27-.07-2.51-.28-6.26-6.2-6.26-3.97,0-6.27,2.23-6.27,6.96v18.45c0,4.73,2.3,6.96,6.2,6.96s6.27-2.23,6.27-6.96v-2.37h-4.11c-2.09,0-3.27-2.02-3.27-4.18,0-2.02,1.18-4.18,3.27-4.18h11.69c2.09,0,3.27,1.6,3.27,3.41v7.31c0,11.97-7.52,16.43-17.12,16.43s-17.05-4.46-17.05-16.43v-18.45c0-11.97,7.59-16.43,16.71-16.43m0-2.83c-12.24,0-19.54,7.2-19.54,19.26v18.45c0,12.24,7.25,19.26,19.89,19.26s19.96-7.02,19.96-19.26v-7.31c0-3.11-2.01-5.56-4.84-6.12,2.57-.71,4.84-2.63,4.84-7.59,0-9.98-8.16-16.69-20.31-16.69h0Zm-3.01,28.16v-8.89c0-3.81,1.69-4.13,3.43-4.13,3.27,0,3.3,1.1,3.36,3.51.04,1.42.61,4.33,4.39,5.51h-5.66c-2.68,0-4.61,1.76-5.52,4h0Zm3.36,13.68c-1.7,0-3.36-.32-3.36-4.13v-3.44c.96,2.36,3.02,3.91,5.52,3.91h1.26c-.14,3.37-1.83,3.66-3.42,3.66h0Z"/></g><g><path class="cls-3" d="m388.96,76.44c-3.56,0-6.15-2-6.15-4.76V27.48c0-2.76,2.59-4.76,6.15-4.76h24.78c2.76,0,4.69,2.5,4.69,6.08s-1.93,6.22-4.69,6.22h-17.24v8.93h9.03c2.72,0,4.69,2.38,4.69,5.66,0,2.75-1.61,5.52-4.69,5.52h-9.03v9h17.24c2.76,0,4.69,2.56,4.69,6.22s-1.93,6.08-4.69,6.08h-24.78Z"/><path class="cls-1" d="m413.74,24.14c2.3,0,3.27,2.44,3.27,4.66,0,2.58-1.18,4.8-3.27,4.8h-18.66v11.76h10.44c2.09,0,3.27,2.02,3.27,4.25,0,1.88-.97,4.11-3.27,4.11h-10.44v11.84h18.66c2.09,0,3.27,2.23,3.27,4.8,0,2.23-.97,4.66-3.27,4.66h-24.78c-2.37,0-4.73-1.11-4.73-3.34V27.48c0-2.23,2.37-3.34,4.73-3.34h24.78m0-2.83h-24.78c-4.39,0-7.57,2.6-7.57,6.18v44.2c0,3.58,3.18,6.18,7.57,6.18h24.78c3.6,0,6.11-3.08,6.11-7.5s-2.57-7.64-6.11-7.64h-15.82v-6.17h7.61c4.01,0,6.11-3.49,6.11-6.94,0-4.04-2.63-7.08-6.11-7.08h-7.61v-6.1h15.82c3.54,0,6.11-3.21,6.11-7.64s-2.51-7.5-6.11-7.5h0Z"/></g><g><path class="cls-3" d="m450.21,76.86c-2.12,0-3.8-.99-4.74-2.78l-9.15-17.76h-2.31v15.36c0,2.8-2.81,4.76-6.85,4.76s-6.85-1.96-6.85-4.76V27.41c0-2.63,2.09-4.69,4.76-4.69h14.41c12.13,0,18.54,5.64,18.54,16.31,0,7-2.77,12.19-7.85,14.79l7.73,13.99c.45.71.55,1.47.55,1.98,0,3.5-4.16,7.06-8.24,7.06Zm-10.72-31.72c3.53,0,4.85-1.37,4.85-5.06s-1.31-5.06-4.85-5.06h-5.47v10.11h5.47Z"/><path class="cls-1" d="m439.49,24.14c9.54,0,17.12,3.55,17.12,14.9,0,7.8-3.55,12.25-8.42,14.13l8.49,15.38c.28.42.35.9.35,1.25,0,2.72-3.62,5.64-6.82,5.64-1.39,0-2.72-.56-3.48-2.02l-9.54-18.52h-4.59v16.78c0,2.23-2.72,3.34-5.43,3.34s-5.43-1.11-5.43-3.34V27.41c0-1.74,1.32-3.27,3.34-3.27h14.41m-6.89,22.42h6.89c3.9,0,6.27-1.6,6.27-6.47s-2.37-6.47-6.27-6.47h-6.89v12.95m6.89-25.25h-14.41c-3.46,0-6.18,2.68-6.18,6.11v44.27c0,3.64,3.4,6.18,8.27,6.18s8.26-2.54,8.26-6.18v-13.94h.03l8.75,16.98c1.19,2.27,3.37,3.56,6,3.56,4.87,0,9.66-4.2,9.66-8.47,0-.7-.13-1.72-.74-2.7l-7.03-12.74c3.51-2.24,7.36-6.68,7.36-15.32,0-11.43-7.09-17.73-19.96-17.73h0Zm-4.06,15.14h4.06c2.53,0,3.43.55,3.43,3.64s-.9,3.64-3.43,3.64h-4.06v-7.28h0Z"/></g></g></g><g><path class="cls-2" d="m68.58,125.75h-26.37c-14.07,0-21.1-7.04-21.1-21.1,0-5.83-4.72-10.55-10.55-10.55S0,98.82,0,104.64c0,28.13,14.07,42.2,42.2,42.2h52.75c-2.11-14.07-10.9-21.1-26.37-21.1Z"/><path class="cls-2" d="m10.55,77.46c5.83,0,10.55-4.72,10.55-10.55v-.02c0-14.05,7.04-21.08,21.1-21.08h26.37c15.47,0,24.27-7.03,26.38-21.1,2.11,14.07,10.9,21.1,26.37,21.1h26.37c14.07,0,21.1,7.04,21.1,21.1,0,5.83,4.72,10.55,10.55,10.55s10.55-4.72,10.55-10.55c0-28.13-14.07-42.2-42.2-42.2h-26.37c-10.53,0-15.82-1.98-15.82-14.16,0-5.83-4.73-10.56-10.56-10.56s-10.56,4.73-10.56,10.56c0,12.07-5.28,14.16-15.82,14.16h-26.37C14.07,24.72,0,38.79,0,66.92c0,5.83,4.72,10.55,10.55,10.55Z"/><path class="cls-2" d="m179.35,94.1c-5.83,0-10.55,4.72-10.55,10.55,0,14.07-7.03,21.1-21.1,21.1h-26.37c-15.48,0-24.26,7.03-26.38,21.1h52.75c28.13,0,42.2-14.07,42.2-42.2,0-5.83-4.72-10.55-10.55-10.55Z"/><path class="cls-3" d="m150.13,66.92c3.47,0,6.29-2.82,6.29-6.29s-2.81-6.29-6.29-6.29H39.77c-3.47,0-6.29,2.81-6.29,6.29s2.82,6.29,6.29,6.29h110.37Z"/><path class="cls-3" d="m39.77,104.64c-3.47,0-6.29,2.82-6.29,6.29s2.82,6.29,6.29,6.29h110.37c3.47,0,6.29-2.81,6.29-6.29s-2.81-6.29-6.29-6.29H39.77Z"/><path class="cls-3" d="m167.08,85.78c0-3.47-2.81-6.29-6.29-6.29H29.11c-3.47,0-6.29,2.82-6.29,6.29s2.81,6.29,6.29,6.29h131.69c3.47,0,6.29-2.81,6.29-6.29Z"/></g></g></svg>