<?xml version="1.0" encoding="UTF-8"?><svg id="Calque_2" xmlns="http://www.w3.org/2000/svg" viewBox="0 0 189.9 146.84"><defs><style>.cls-1{fill:#3f3f3f;}.cls-2{fill:#ffc107;}</style></defs><g id="Objects"><g><path class="cls-1" d="m68.58,125.75h-26.37c-14.07,0-21.1-7.04-21.1-21.1,0-5.83-4.72-10.55-10.55-10.55S0,98.82,0,104.64c0,28.13,14.07,42.2,42.2,42.2h52.75c-2.11-14.07-10.9-21.1-26.37-21.1Z"/><path class="cls-1" d="m10.55,77.46c5.83,0,10.55-4.72,10.55-10.55v-.02c0-14.05,7.04-21.08,21.1-21.08h26.37c15.47,0,24.27-7.03,26.38-21.1,2.11,14.07,10.9,21.1,26.37,21.1h26.37c14.07,0,21.1,7.04,21.1,21.1,0,5.83,4.72,10.55,10.55,10.55s10.55-4.72,10.55-10.55c0-28.13-14.07-42.2-42.2-42.2h-26.37c-10.53,0-15.82-1.98-15.82-14.16,0-5.83-4.73-10.56-10.56-10.56s-10.56,4.73-10.56,10.56c0,12.07-5.28,14.16-15.82,14.16h-26.37C14.07,24.72,0,38.79,0,66.92c0,5.83,4.72,10.55,10.55,10.55Z"/><path class="cls-1" d="m179.35,94.1c-5.83,0-10.55,4.72-10.55,10.55,0,14.07-7.03,21.1-21.1,21.1h-26.37c-15.48,0-24.26,7.03-26.38,21.1h52.75c28.13,0,42.2-14.07,42.2-42.2,0-5.83-4.72-10.55-10.55-10.55Z"/><path class="cls-2" d="m150.13,66.92c3.47,0,6.29-2.82,6.29-6.29s-2.81-6.29-6.29-6.29H39.77c-3.47,0-6.29,2.81-6.29,6.29s2.82,6.29,6.29,6.29h110.37Z"/><path class="cls-2" d="m39.77,104.64c-3.47,0-6.29,2.82-6.29,6.29s2.82,6.29,6.29,6.29h110.37c3.47,0,6.29-2.81,6.29-6.29s-2.81-6.29-6.29-6.29H39.77Z"/><path class="cls-2" d="m167.08,85.78c0-3.47-2.81-6.29-6.29-6.29H29.11c-3.47,0-6.29,2.82-6.29,6.29s2.81,6.29,6.29,6.29h131.69c3.47,0,6.29-2.81,6.29-6.29Z"/></g></g></svg>