<svg width="493" height="491" viewBox="0 0 493 491" fill="none" xmlns="http://www.w3.org/2000/svg">
<path d="M246.094 490.234C110.398 490.234 0 380.275 0 245.117C0 109.96 110.398 0 246.094 0C381.79 0 492.188 109.96 492.188 245.117C492.188 380.275 381.79 490.234 246.094 490.234ZM246.094 19.6094C121.253 19.6094 19.6875 120.772 19.6875 245.117C19.6875 369.462 121.253 470.625 246.094 470.625C370.934 470.625 472.5 369.462 472.5 245.117C472.5 120.772 370.934 19.6094 246.094 19.6094Z" fill="black"/>
<path d="M246.094 431.406C142.965 431.406 59.0625 347.837 59.0625 245.117C59.0625 142.397 142.965 58.8281 246.094 58.8281C349.223 58.8281 433.125 142.397 433.125 245.117C433.125 347.837 349.223 431.406 246.094 431.406ZM246.094 78.4375C153.82 78.4375 78.75 153.21 78.75 245.117C78.75 337.024 153.82 411.797 246.094 411.797C338.367 411.797 413.438 337.024 413.438 245.117C413.438 153.21 338.367 78.4375 246.094 78.4375Z" fill="black"/>
<path d="M246.094 362.773L127.969 245.117L187.031 186.289H305.156L364.219 245.117L246.094 362.773Z" fill="#FFC107"/>
<path d="M246.094 376.639L114.048 245.117L182.954 176.484H309.236L378.142 245.117L246.094 376.639ZM141.89 245.117L246.094 348.908L350.298 245.117L301.079 196.094H191.111L141.89 245.117Z" fill="black"/>
<path d="M364.219 235.312H127.969V254.922H364.219V235.312Z" fill="black"/>
<path d="M246.094 368.339C241 368.339 236.498 365.107 234.889 360.293L177.693 189.389L196.369 183.189L246.094 331.767L295.818 183.189L314.494 189.389L257.298 360.293C255.689 365.105 251.187 368.339 246.094 368.339Z" fill="black"/>
<path d="M255.938 127.461H236.25V156.875H255.938V127.461Z" fill="black"/>
<path d="M357.255 159.75L337.568 179.359L351.488 193.223L371.175 173.614L357.255 159.75Z" fill="black"/>
<path d="M134.927 159.747L121.008 173.611L140.695 193.22L154.615 179.356L134.927 159.747Z" fill="black"/>
</svg>
