<svg width="494" height="516" viewBox="0 0 494 516" fill="none" xmlns="http://www.w3.org/2000/svg">
<path d="M329.23 6.55664C419.372 34.7252 423.734 128.692 369.766 189.925C359.302 152.937 329.23 6.55664 329.23 6.55664Z" fill="#FFC107"/>
<path d="M401.127 131.575C414.189 80.2666 393.557 26.6584 329.23 6.55835C329.23 6.55835 331.786 19.0012 335.666 37.5327C381.397 55.6922 401.715 92.4308 401.127 131.575Z" fill="#FFF3F3"/>
<path d="M48.5081 418.99C26.0684 418.99 7.8774 401.76 7.8774 380.506C7.8774 359.252 26.0684 342.022 48.5081 342.022C70.9477 342.022 89.1387 359.252 89.1387 380.506C89.1387 401.76 70.9477 418.99 48.5081 418.99Z" fill="#FFE8A2"/>
<path d="M379.528 147.935H358.255C356.594 147.935 354.973 148.076 353.37 148.278C352.585 84.5425 307.154 28.3333 228.62 37.7342C228.62 37.7342 290.944 117.59 328.133 162.8C323.933 168.465 321.447 175.351 321.447 182.8V230.656C113.48 183.169 21.0492 396.017 87.1369 489.44C95.7662 501.639 110.483 508.712 125.985 508.712H203.628V459.511C317.77 458.802 352.296 412.582 367.047 390.71C378.734 373.382 397.434 329.64 395.323 298.628H456.143C473.226 298.628 487.074 285.511 487.074 269.332V249.799C487.074 193.54 438.925 147.935 379.528 147.935Z" fill="#FFC107"/>
<path d="M307.867 133.011C285.137 105.377 253.016 64.8014 231.476 37.4261C230.526 37.5212 229.576 37.6179 228.618 37.7326C228.618 37.7326 270.512 91.4097 306.098 135.664C306.652 134.758 307.233 133.866 307.867 133.011Z" fill="#FFE8A2"/>
<path d="M458.485 180.662C463.844 192.768 466.809 206.06 466.809 220.009V239.542C466.809 255.722 452.961 268.838 435.881 268.838H385.472C379.931 268.838 375.377 272.955 375.112 278.197C373.605 308.096 357.336 345.274 346.785 360.919C332.033 382.791 297.507 429.011 183.366 429.72V478.921H105.721C94.7643 478.921 84.2091 475.373 75.9103 468.994C78.845 476.047 82.4406 482.702 86.7198 488.845C95.401 501.313 110.218 508.711 125.985 508.711H203.628V459.51C317.77 458.8 352.296 412.58 367.047 390.709C378.734 373.38 397.434 329.638 395.323 298.626H456.143C473.226 298.626 487.074 285.51 487.074 269.33V249.797C487.074 223.105 476.221 198.824 458.485 180.662Z" fill="#FFE8A2"/>
<path d="M330.392 248.847C336.781 250.017 342.707 245.359 342.707 239.195V203.527C342.707 202.286 342.776 201.06 342.911 199.852C344.479 185.793 339.74 171.752 330.683 160.516C294.439 115.548 249.882 58.4588 249.882 58.4588C282.56 54.5466 309.5 62.0022 329.883 76.6232C308.884 49.0496 274.372 32.2537 228.619 37.731C228.619 37.731 290.943 117.587 328.132 162.797C323.933 168.461 321.446 175.348 321.446 182.797V230.653C113.479 183.166 21.0484 396.014 87.1362 489.437C91.5036 495.611 97.4335 500.465 104.23 503.761C47.6579 409.376 135.633 213.173 330.392 248.847Z" fill="#FFF3F3"/>
<path d="M298.888 377.517V468.321C326.489 468.321 350.41 476.478 350.41 508.708C333.236 508.708 242.461 508.708 242.461 508.708V408.196L298.888 377.517Z" fill="#FFC107"/>
<path d="M242.459 484.586V508.708C242.459 508.708 333.234 508.708 350.408 508.708C350.408 498.356 347.93 490.497 343.665 484.586C316.816 484.586 242.459 484.586 242.459 484.586Z" fill="#FFE8A2"/>
<path d="M70.975 361.117C93.6843 306.511 189.417 265.61 249.088 342.02C279.179 382.511 249.997 445.877 199.3 467.791C252.763 467.791 261.424 482.873 261.424 508.707C245.896 508.707 121.656 508.707 121.656 508.707C81.0751 508.707 73.9131 475.712 70.975 467.611C59.3106 429.73 59.2016 393.914 70.975 361.117Z" fill="#FFC107"/>
<path d="M121.656 484.859C81.0751 484.859 73.9131 451.863 70.975 443.763C66.4311 429.006 63.666 414.567 62.6485 400.493C61.0375 421.945 63.8251 444.387 70.975 467.611C73.9131 475.712 81.0751 508.708 121.656 508.708C121.656 508.708 245.896 508.708 261.424 508.708C261.424 499.241 260.249 491.225 256.144 484.859C227.85 484.859 121.656 484.859 121.656 484.859Z" fill="#FFE8A2"/>
<path d="M70.9753 386.805C93.6845 332.198 189.417 291.297 249.088 367.708C254.816 375.414 258.382 383.951 260.076 392.87C263.193 374.96 260.175 356.938 249.088 342.02C189.417 265.61 93.6845 306.511 70.9753 361.117C63.6887 381.417 60.9651 402.878 62.7059 425.266C63.7752 412.048 66.5213 399.21 70.9753 386.805Z" fill="#FFF3F3"/>
<path d="M48.5097 335.465C57.4816 335.465 66.1628 337.846 73.6535 342.273C74.344 341.285 75.0551 340.306 75.7888 339.338C81.9351 325.305 89.72 311.644 99.1591 298.812C147.888 232.564 226.022 205 314.525 222.463V182.801C314.525 175.915 316.311 169.24 319.725 163.238C282.638 117.948 223.662 42.4087 223.055 41.6302C221.594 39.7585 221.29 37.2935 222.257 35.1547C223.224 33.0142 225.316 31.5212 227.753 31.2294C263.113 26.996 294.46 35.2137 318.427 54.9908C325.124 60.5173 331.078 66.8814 336.281 73.8895C328.655 38.0425 322.542 8.3088 322.44 7.80892C321.971 5.52424 322.815 3.17563 324.658 1.63666C326.501 0.0976959 329.067 -0.398912 331.403 0.330418C363.998 10.5165 388.109 29.7216 401.131 55.8693C413.986 81.681 415.13 113.422 404.566 144.022C455.678 154.868 494 198.161 494 249.797V269.33C494 289.099 477.02 305.182 456.15 305.182H402.403C401.834 337.925 383.485 378.523 372.887 394.237C365.277 405.521 347.784 431.45 305.814 448.622V461.95C348.181 464.291 357.336 488.357 357.336 508.708C357.336 512.328 354.237 515.263 350.415 515.263H261.431H261.429H203.668C203.656 515.263 203.645 515.267 203.635 515.267H125.99C125.952 515.267 125.916 515.263 125.878 515.263H121.662C79.2253 515.263 68.6442 482.653 65.1696 471.938C64.891 471.078 64.6522 470.335 64.4359 469.74C64.3996 469.644 64.3684 469.545 64.3373 469.447C59.667 454.283 56.8206 439.449 55.7599 424.995C53.3737 425.341 50.9581 425.546 48.5166 425.546C22.2964 425.546 0.9645 405.341 0.9645 380.506C0.955849 355.67 22.2878 335.465 48.5097 335.465ZM388.605 61.4647C378.787 41.7498 361.565 26.5027 338.42 16.8952C343.434 41.0664 355.376 98.1753 365.126 141.381H379.53C383.305 141.381 387.036 141.566 390.72 141.906C400.929 113.863 400.228 84.8016 388.605 61.4647ZM298.886 474.877C295.064 474.877 291.965 471.941 291.965 468.321V444.24C291.965 444.179 291.963 444.119 291.965 444.06V377.517C291.965 373.896 295.064 370.961 298.886 370.961C302.708 370.961 305.808 373.896 305.808 377.517V434.218C339.863 418.807 354.085 397.75 361.214 387.18C371.4 372.076 390.479 329.357 388.417 299.049C388.294 297.24 388.965 295.465 390.275 294.144C391.583 292.821 393.411 292.072 395.324 292.072H456.145C469.382 292.072 480.152 281.871 480.152 269.332V249.799C480.152 197.246 435.014 154.493 379.53 154.493H358.257C357.089 154.493 355.825 154.583 354.284 154.778C352.321 155.02 350.34 154.463 348.842 153.236C347.345 152.008 346.475 150.231 346.452 148.355C346.033 114.425 332.505 84.0001 309.334 64.8786C291.167 49.8872 267.952 42.5332 241.609 43.3248C259.261 65.8537 304.432 123.32 333.594 158.774C335.464 161.048 335.547 164.212 333.798 166.57C330.247 171.359 328.37 176.972 328.37 182.802V230.656C328.37 232.665 327.397 234.563 325.731 235.807C324.065 237.05 321.888 237.502 319.825 237.03C233.664 217.356 157.374 242.607 110.519 306.308C109.27 308.006 108.057 309.724 106.868 311.456C121.322 302.535 137.885 296.407 154.882 294.288C193.402 289.491 228.832 305.056 254.75 338.249C268.086 356.196 271.638 379.331 264.753 403.396C261.545 414.609 256.255 425.336 249.384 435.073V469.958C261.123 476.44 266.874 486.846 268.091 502.154H343.085C340.603 483.35 326.686 474.877 298.886 474.877ZM235.359 451.428C235.418 451.422 235.48 451.418 235.539 451.414V451.258C235.479 451.315 235.418 451.371 235.359 451.428ZM235.539 464.578C235.378 464.592 235.214 464.604 235.053 464.619C235.216 464.658 235.378 464.697 235.539 464.737V464.578ZM239.966 480.03C239.793 479.966 239.628 479.89 239.462 479.815C231.267 476.289 218.673 474.347 199.3 474.347C196.044 474.347 193.228 472.197 192.536 469.185C191.846 466.172 193.464 463.107 196.426 461.827C212.363 454.939 226.367 443.47 236.643 429.525C236.725 429.406 236.815 429.294 236.905 429.18C243.418 420.264 248.417 410.353 251.391 399.964C257.181 379.731 254.352 360.493 243.523 345.918C220.829 316.853 189.996 303.137 156.685 307.285C129.75 310.641 104.089 325.326 88.3495 345.19C67.0747 394.97 67.7496 450.256 92.8848 485.787C100.114 496.006 112.438 502.114 125.871 502.149H254.307C253.616 492.49 250.709 484.84 239.966 480.03ZM48.5097 412.435C50.8024 412.435 53.0605 412.194 55.2754 411.766C55.3377 393.47 58.3814 375.84 64.4238 359.008C64.4602 358.91 64.4965 358.812 64.5363 358.717C65.2354 357.035 66.0105 355.375 66.829 353.729C61.4043 350.396 55.0747 348.578 48.5097 348.578C29.9221 348.578 14.8005 362.901 14.8005 380.506C14.7987 398.11 29.9204 412.435 48.5097 412.435Z" fill="#402943"/>
<path d="M431.131 219.354C427.308 219.354 424.209 216.419 424.209 212.798C424.209 209.177 427.308 206.242 431.131 206.242C434.953 206.242 438.052 209.177 438.052 212.798C438.052 216.419 434.953 219.354 431.131 219.354Z" fill="#402943"/>
</svg>
