<svg width="455" height="485" viewBox="0 0 455 485" fill="none" xmlns="http://www.w3.org/2000/svg">
<path d="M68.5235 273.117C66.4643 297.64 40.9883 301.513 40.9883 301.513C62.8638 302.545 68.3142 331.327 68.3142 331.327C68.7814 310.805 96.4773 301.209 96.4773 301.209C75.7286 299.965 68.5235 273.117 68.5235 273.117Z" fill="#D6DF58"/>
<path d="M96.6654 298.033C78.4749 296.941 71.6503 272.534 71.5827 272.286C71.1789 270.795 69.7603 269.807 68.2359 269.949C66.7031 270.089 65.4917 271.311 65.3627 272.848C63.5445 294.51 41.4449 298.219 40.5126 298.364C38.8995 298.61 37.7367 300.041 37.8212 301.674C37.9058 303.309 39.2102 304.611 40.8403 304.687C59.9251 305.589 65.1492 331.658 65.1999 331.923C65.4896 333.43 66.8046 334.503 68.312 334.503C68.4008 334.503 68.4896 334.499 68.5784 334.493C70.1937 334.357 71.4474 333.023 71.4854 331.397C71.8977 313.352 97.2616 304.301 97.5174 304.212C98.9445 303.716 99.8261 302.274 99.6189 300.773C99.4096 299.269 98.1749 298.122 96.6654 298.033ZM67.9865 319.973C65.1175 313.333 60.147 305.326 51.9461 301.148C58.1428 298.171 65.4959 292.85 69.2867 283.606C72.5658 290.119 78.1642 298.196 86.9063 302.104C80.5468 305.58 72.2698 311.446 67.9865 319.973Z" fill="#3A312A"/>
<path d="M22.6502 309.128C21.1935 326.473 3.17432 329.21 3.17432 329.21C18.6459 329.94 22.5022 350.298 22.5022 350.298C22.832 335.784 42.4221 328.996 42.4221 328.996C27.7454 328.116 22.6502 309.128 22.6502 309.128Z" fill="#D6DF58"/>
<path d="M42.6101 325.822C30.4197 325.09 25.7558 308.462 25.7114 308.295C25.3076 306.806 23.9038 305.818 22.3668 305.958C20.834 306.096 19.6204 307.321 19.4915 308.859C18.2673 323.428 3.32426 325.964 2.70058 326.063C1.08745 326.309 -0.0753531 327.741 0.00921441 329.374C0.0937819 331.009 1.39824 332.311 3.02828 332.387C15.7874 332.989 19.3562 350.72 19.39 350.894C19.6754 352.406 20.9946 353.481 22.5021 353.481C22.5909 353.481 22.6775 353.477 22.7663 353.471C24.3837 353.337 25.6374 352.001 25.6755 350.372C25.9503 338.266 43.2909 332.063 43.46 332.003C44.8913 331.507 45.7729 330.067 45.5657 328.564C45.3564 327.06 44.1196 325.911 42.6101 325.822ZM22.3477 340.231C20.3942 336.232 17.4005 331.861 12.9459 329.034C16.8699 326.827 20.7621 323.459 23.2441 318.609C25.4788 322.584 28.8552 326.994 33.6903 329.688C29.777 332.02 25.2569 335.496 22.3477 340.231Z" fill="#3A312A"/>
<path d="M22.57 252.596C21.181 269.947 3.17236 272.757 3.17236 272.757C18.6482 273.427 22.5827 293.768 22.5827 293.768C22.8576 279.253 42.4202 272.388 42.4202 272.388C27.7392 271.565 22.57 252.596 22.57 252.596Z" fill="#D6DF58"/>
<path d="M42.5953 269.213C30.4451 268.533 25.7072 252.04 25.6268 251.756C25.2209 250.27 23.8086 249.273 22.2737 249.432C20.741 249.574 19.5316 250.802 19.409 252.344C18.242 266.919 3.30948 269.514 2.68368 269.616C1.07267 269.869 -0.0859102 271.304 0.00499989 272.935C0.09591 274.57 1.40671 275.868 3.03463 275.938C15.7959 276.489 19.4344 294.203 19.4682 294.377C19.76 295.882 21.075 296.951 22.5782 296.951C22.6691 296.951 22.7621 296.947 22.8551 296.938C24.4725 296.799 25.722 295.458 25.7516 293.83C25.9799 281.723 43.293 275.452 43.4642 275.393C44.8913 274.892 45.7687 273.448 45.5573 271.945C45.3459 270.443 44.1048 269.298 42.5953 269.213ZM22.3879 283.704C20.4175 279.71 17.409 275.353 12.9417 272.543C16.8551 270.318 20.7367 266.934 23.1976 262.075C25.4471 266.041 28.8404 270.439 33.6882 273.111C29.7876 275.463 25.278 278.958 22.3879 283.704Z" fill="#3A312A"/>
<path d="M288.856 354.42H246.752V326.973C235.105 335.072 223.056 339.85 211.363 339.85C200.147 339.85 188.31 335.025 176.713 326.829H175.999V354.418H133.871C98.6744 354.418 70.1455 383.034 70.1455 418.338V476.264H352.582V418.338C352.582 383.036 324.053 354.42 288.856 354.42Z" fill="#F7E3C7"/>
<path d="M288.856 351.239H249.923V326.975C249.923 325.792 249.27 324.706 248.223 324.157C247.179 323.61 245.919 323.686 244.946 324.362C233.2 332.529 221.902 336.671 211.365 336.671C201.267 336.671 190.223 332.484 178.542 324.231C178.007 323.853 177.369 323.652 176.715 323.652H176.001C174.248 323.652 172.829 325.077 172.829 326.833V351.244H133.871C96.985 351.244 66.9741 381.344 66.9741 418.347V476.272C66.9741 478.028 68.3927 479.453 70.1454 479.453H112.209C113.962 479.453 115.381 478.028 115.381 476.272C115.381 474.516 113.962 473.091 112.209 473.091H73.3167V418.347C73.3167 384.853 100.482 357.605 133.871 357.605H175.999C177.751 357.605 179.17 356.18 179.17 354.424V332.304C190.405 339.427 201.214 343.035 211.363 343.035C221.678 343.035 232.492 339.61 243.581 332.843V354.424C243.581 356.18 244.999 357.605 246.752 357.605H288.856C322.245 357.605 349.411 384.853 349.411 418.347V473.091H141.385C139.632 473.091 138.214 474.516 138.214 476.272C138.214 478.028 139.632 479.453 141.385 479.453H352.582C354.335 479.453 355.753 478.028 355.753 476.272V418.347C355.753 381.342 325.742 351.239 288.856 351.239Z" fill="#3A312A"/>
<path d="M288.85 354.412H277.518L277.75 354.582L211.365 395.764L144.979 354.582L145.212 354.412H133.88C98.6787 354.412 70.1372 383.041 70.1372 418.349V476.264H352.593V418.349C352.593 383.041 324.051 354.412 288.85 354.412Z" fill="#FFC107"/>
<path d="M288.85 351.229H277.518C276.456 351.229 275.488 351.759 274.907 352.603L211.365 392.022L147.823 352.603C147.242 351.759 146.273 351.229 145.212 351.229H133.88C96.9831 351.229 66.9658 381.338 66.9658 418.347V476.262C66.9658 478.018 68.3844 479.443 70.1371 479.443H112.209C113.962 479.443 115.381 478.018 115.381 476.262C115.381 474.506 113.962 473.081 112.209 473.081H73.3084V418.347C73.3084 384.845 100.48 357.591 133.88 357.591H143.804L209.697 398.466C210.718 399.1 212.012 399.1 213.033 398.466L278.926 357.591H288.85C322.25 357.591 349.421 384.848 349.421 418.347V473.081H141.385C139.633 473.081 138.214 474.506 138.214 476.262C138.214 478.018 139.633 479.443 141.385 479.443H352.593C354.345 479.443 355.764 478.018 355.764 476.262V418.347C355.764 381.34 325.745 351.229 288.85 351.229Z" fill="#3A312A"/>
<path fill-rule="evenodd" clip-rule="evenodd" d="M101.936 170.812C88.0883 170.812 76.8599 182.072 76.8599 195.965C76.8599 209.857 88.0862 221.115 101.936 221.115C115.784 221.115 127.011 209.855 127.011 195.965C127.011 182.074 115.786 170.812 101.936 170.812Z" fill="#F7E3C7"/>
<path d="M101.936 167.631C86.3608 167.631 73.6904 180.342 73.6904 195.965C73.6904 211.587 86.3629 224.296 101.936 224.296C117.509 224.296 130.182 211.585 130.182 195.965C130.182 180.342 117.511 167.631 101.936 167.631ZM101.936 217.934C89.8576 217.934 80.033 208.08 80.033 195.965C80.033 183.849 89.8597 173.993 101.936 173.993C114.012 173.993 123.839 183.849 123.839 195.965C123.839 208.08 114.014 217.934 101.936 217.934Z" fill="#3A312A"/>
<path fill-rule="evenodd" clip-rule="evenodd" d="M320.799 170.812C306.951 170.812 295.725 182.072 295.725 195.965C295.725 209.857 306.951 221.115 320.799 221.115C334.647 221.115 345.874 209.855 345.874 195.965C345.874 182.074 334.647 170.812 320.799 170.812Z" fill="#F7E3C7"/>
<path d="M320.799 167.631C305.224 167.631 292.554 180.342 292.554 195.965C292.554 211.587 305.226 224.296 320.799 224.296C336.372 224.296 349.045 211.585 349.045 195.965C349.045 180.342 336.372 167.631 320.799 167.631ZM320.799 217.934C308.721 217.934 298.896 208.08 298.896 195.965C298.896 183.849 308.721 173.993 320.799 173.993C332.878 173.993 342.702 183.849 342.702 195.965C342.702 208.08 332.878 217.934 320.799 217.934Z" fill="#3A312A"/>
<path d="M327.698 124.576C327.698 94.9292 315.499 68.0183 295.647 48.1692C296.852 51.6258 297.486 55.1249 297.486 58.5815C297.486 70.2874 289.452 80.9754 276.217 89.0762C278.966 93.6568 282.391 97.8556 286.408 101.546C306.535 119.995 319.833 145.782 322.159 174.665C322.455 174.262 323.11 174.05 323.617 173.859C328.374 172.12 327.698 128.393 327.698 124.576Z" fill="#87796F"/>
<path d="M330.879 125.928L330.871 124.578C330.871 95.1199 319.158 67.1848 297.888 45.9191C296.839 44.8736 295.209 44.6913 293.959 45.4801C292.708 46.2711 292.167 47.8213 292.655 49.2231C293.756 52.3849 294.317 55.5341 294.317 58.5856C294.317 68.7032 287.304 78.5705 274.568 86.3659C273.08 87.2778 272.604 89.2224 273.502 90.7217C276.416 95.578 280.037 100.01 284.27 103.899C304.469 122.412 316.801 147.637 319 174.926C319.106 176.249 320.021 177.367 321.294 177.729C321.581 177.812 321.871 177.85 322.161 177.85C322.962 177.85 323.74 177.545 324.33 176.989C324.41 176.957 324.492 176.932 324.571 176.902C324.575 176.902 324.666 176.866 324.71 176.851C327.461 175.842 331.228 174.444 330.879 125.928ZM323.573 161.648C318.915 137.704 306.748 115.881 288.551 99.2021C285.541 96.4368 282.877 93.364 280.604 90.0389C293.566 81.2913 300.659 70.211 300.659 58.5835V58.4139C316.122 77.243 324.528 100.371 324.528 124.578L324.537 125.975C324.666 144.132 324.182 155.068 323.573 161.648Z" fill="#3A312A"/>
<path d="M286.41 101.524C282.393 97.8554 278.968 93.6565 276.22 89.0972C260.744 98.5976 238.122 104.599 212.921 104.599C206.938 104.599 201.102 104.26 195.458 103.602C154.95 98.9793 116.112 123.218 103.279 162.047C102.032 165.779 101.165 169.363 100.763 172.693C100.7 173.159 100.657 173.626 100.615 174.092C100.361 177.273 100.213 180.496 100.213 183.762C100.213 245.324 161.694 339.862 211.377 339.862C263.408 339.862 322.52 245.324 322.52 183.762C322.518 151.189 308.609 121.903 286.41 101.524Z" fill="#F7E3C7"/>
<path d="M288.543 99.1726C284.784 95.7372 281.549 91.795 278.932 87.4519C278.494 86.7266 277.788 86.2071 276.968 86.0056C276.15 85.8063 275.281 85.942 274.562 86.3831C259 95.9366 236.53 101.416 212.919 101.416C207.134 101.416 201.382 101.088 195.815 100.441C153.658 95.6163 113.465 121.117 100.271 161.036C98.9238 165.067 98.0295 168.861 97.6193 172.265C97.5495 172.778 97.503 173.289 97.4523 173.838C97.1753 177.307 97.04 180.554 97.04 183.763C97.04 213.67 111.414 253.114 134.552 286.707C158.853 321.983 187.57 343.041 211.373 343.041C236.428 343.041 264.75 322.501 289.076 286.69C311.66 253.444 325.687 214.007 325.687 183.763C325.689 151.677 312.154 120.848 288.543 99.1726ZM283.839 283.108C261.052 316.652 233.963 336.681 211.377 336.681C189.656 336.681 162.889 316.648 139.774 283.091C117.33 250.507 103.387 212.446 103.387 183.765C103.387 180.728 103.516 177.649 103.776 174.383C103.814 173.963 103.852 173.543 103.913 173.077C104.277 170.055 105.076 166.685 106.292 163.05C117.554 128.974 150 106.224 185.597 106.224C188.743 106.224 191.912 106.402 195.094 106.765C200.895 107.439 206.893 107.782 212.923 107.782C236.363 107.782 258.841 102.561 275.198 93.3854C277.797 97.2195 280.839 100.738 284.272 103.872C306.567 124.338 319.353 153.459 319.353 183.765C319.347 212.798 305.742 250.864 283.839 283.108Z" fill="#3A312A"/>
<path d="M172.121 171.613C166.129 171.613 161.271 176.486 161.271 182.496C161.271 188.506 166.129 193.379 172.121 193.379C178.113 193.379 182.971 188.506 182.971 182.496C182.971 176.486 178.115 171.613 172.121 171.613Z" fill="#3A312A"/>
<path d="M250.612 171.613C244.621 171.613 239.762 176.486 239.762 182.496C239.762 188.506 244.619 193.379 250.612 193.379C256.606 193.379 261.462 188.506 261.462 182.496C261.462 176.486 256.606 171.613 250.612 171.613Z" fill="#3A312A"/>
<path d="M150.436 200.836C140.115 200.836 131.747 207.111 131.747 214.851C131.747 222.591 140.115 228.866 150.436 228.866C160.76 228.866 169.128 222.591 169.128 214.851C169.128 207.111 160.76 200.836 150.436 200.836Z" fill="#F59689"/>
<path d="M272.297 228.866C282.619 228.866 290.987 222.592 290.987 214.851C290.987 207.111 282.619 200.836 272.297 200.836C261.975 200.836 253.608 207.111 253.608 214.851C253.608 222.592 261.975 228.866 272.297 228.866Z" fill="#F59689"/>
<path d="M243.191 252.043C241.557 251.425 239.722 252.259 239.109 253.904C236.899 259.823 228.255 271.016 211.362 271.016C198.165 271.016 189.053 265.337 183.51 253.652C182.757 252.066 180.867 251.398 179.284 252.146C177.702 252.901 177.03 254.799 177.783 256.386C184.391 270.314 195.69 277.376 211.362 277.376C229.056 277.376 241.225 266.365 245.048 256.133C245.663 254.492 244.832 252.658 243.191 252.043Z" fill="#3A312A"/>
<path d="M221.887 3.39001C184.29 1.03399 151.028 18.472 134.763 34.2346C110.213 54.4633 97.5894 91.0952 97.5894 124.569C97.5894 130.687 98.6655 165.489 100.613 174.099C100.93 170.381 101.873 166.318 103.285 162.043C116.108 123.225 154.956 98.9754 195.464 103.607C201.096 104.252 206.935 104.589 212.92 104.589C259.623 104.589 297.484 83.9932 297.484 58.5859C297.484 33.1785 262.885 5.96234 221.887 3.39001Z" fill="#87796F"/>
<path d="M222.084 0.215274C185.297 -2.08561 150.692 14.432 132.649 31.8572C109.064 51.3607 94.4165 86.8707 94.4165 124.571C94.4165 130.738 95.4588 165.693 97.518 174.805C97.8478 176.264 99.1396 177.282 100.609 177.282C100.683 177.282 100.755 177.28 100.829 177.275C102.389 177.167 103.636 175.935 103.772 174.374C104.053 171.07 104.903 167.262 106.294 163.046C118.546 125.956 155.887 102.281 195.103 106.769C200.923 107.435 206.917 107.772 212.917 107.772C262.114 107.772 300.651 86.1667 300.651 58.5878C300.651 30.6167 263.203 2.79396 222.084 0.215274ZM212.917 101.41C207.156 101.41 201.405 101.085 195.821 100.447C155.335 95.8071 116.677 119.126 101.979 156.332C101.205 143.886 100.759 129.048 100.759 124.569C100.759 89.214 114.897 54.7198 136.776 36.6923C136.842 36.6372 136.905 36.582 136.967 36.5205C152.906 21.0738 182.69 6.35875 215.096 6.35875C217.28 6.35875 219.483 6.42449 221.689 6.56445C263.253 9.17071 294.309 36.1791 294.309 58.5857C294.309 82.2011 257.797 101.41 212.917 101.41Z" fill="#3A312A"/>
<path d="M211.365 436.109C216.911 436.109 221.407 431.599 221.407 426.036C221.407 420.473 216.911 415.963 211.365 415.963C205.818 415.963 201.322 420.473 201.322 426.036C201.322 431.599 205.818 436.109 211.365 436.109Z" fill="#3A312A"/>
<path d="M211.365 466.676C216.911 466.676 221.407 462.166 221.407 456.603C221.407 451.04 216.911 446.53 211.365 446.53C205.818 446.53 201.322 451.04 201.322 456.603C201.322 462.166 205.818 466.676 211.365 466.676Z" fill="#3A312A"/>
<path d="M276.846 3.25183H147.998C120.527 3.25183 98.2559 25.5906 98.2559 53.1461V111.427H326.588V53.1461C326.588 25.5906 304.317 3.25183 276.846 3.25183Z" fill="#FFC107"/>
<path d="M276.843 0.0709229H147.998C118.82 0.0709229 95.0845 23.8814 95.0845 53.1461V111.427C95.0845 113.186 96.5031 114.608 98.2558 114.608H231.342C233.094 114.608 234.513 113.186 234.513 111.427C234.513 109.669 233.094 108.247 231.342 108.247H101.425V53.1461C101.425 27.3889 122.317 6.43282 147.996 6.43282H276.843C302.522 6.43282 323.415 27.3889 323.415 53.1461V108.247H260.452C258.699 108.247 257.281 109.669 257.281 111.427C257.281 113.186 258.699 114.608 260.452 114.608H326.586C328.339 114.608 329.757 113.186 329.757 111.427V53.1461C329.757 23.8814 306.021 0.0709229 276.843 0.0709229Z" fill="#3A312A"/>
<path d="M211.362 392.581C209.609 392.581 208.191 394.006 208.191 395.762V403.142L172.583 411.512C171.15 411.847 170.135 413.132 170.135 414.608V476.266C170.135 478.022 171.554 479.447 173.307 479.447C175.059 479.447 176.478 478.022 176.478 476.266V417.13L212.085 408.76C213.518 408.425 214.533 407.14 214.533 405.664V395.76C214.533 394.006 213.115 392.581 211.362 392.581Z" fill="#3A312A"/>
<path d="M368.888 475.894C416.446 471.172 451.183 428.673 446.476 380.97C441.768 333.267 399.399 298.424 351.84 303.146C304.282 307.868 269.545 350.367 274.252 398.07C278.96 445.773 321.33 480.616 368.888 475.894Z" fill="#D7E057"/>
<path d="M360.394 299.539C310.931 299.539 270.687 339.903 270.687 389.519C270.687 439.136 310.931 479.5 360.394 479.5C409.858 479.5 450.101 439.136 450.101 389.519C450.101 339.903 409.86 299.539 360.394 299.539ZM360.394 473.138C314.427 473.138 277.03 435.628 277.03 389.519C277.03 343.41 314.427 305.901 360.394 305.901C406.361 305.901 443.759 343.41 443.759 389.519C443.759 435.628 406.361 473.138 360.394 473.138Z" fill="#3A312A"/>
<path d="M416.178 351.52C412.267 347.17 405.582 346.824 401.248 350.748L341.789 404.55L321.084 375.228C317.708 370.448 311.11 369.32 306.348 372.703C301.583 376.087 300.456 382.706 303.833 387.483L331.412 426.543C333.156 429.016 335.873 430.621 338.873 430.954C339.264 430.997 339.651 431.018 340.038 431.018C342.641 431.018 345.167 430.053 347.121 428.286L415.413 366.491C419.745 362.572 420.09 355.867 416.178 351.52Z" fill="#87796F"/>
<path d="M418.534 349.388C416.075 346.655 412.703 345.043 409.035 344.854C405.38 344.674 401.849 345.919 399.122 348.387L342.311 399.791L323.671 373.387C321.548 370.382 318.387 368.387 314.768 367.768C311.157 367.142 307.508 367.98 304.514 370.107C301.518 372.236 299.527 375.406 298.909 379.037C298.29 382.665 299.119 386.321 301.241 389.324L328.819 428.384C331.085 431.597 334.62 433.686 338.535 434.12C339.037 434.173 339.538 434.203 340.032 434.203C343.436 434.203 346.707 432.941 349.24 430.653L417.532 368.856C420.257 366.391 421.862 363.007 422.05 359.33C422.242 355.653 420.993 352.122 418.534 349.388ZM413.287 364.131L344.996 425.926C343.428 427.345 341.235 428.011 339.223 427.794C337.123 427.563 335.22 426.435 334.001 424.707L306.421 385.645C305.279 384.027 304.833 382.061 305.165 380.108C305.497 378.153 306.569 376.445 308.184 375.298C309.448 374.401 310.924 373.93 312.444 373.93C312.863 373.93 313.286 373.969 313.704 374.038C315.654 374.371 317.356 375.449 318.499 377.067L339.204 406.391C339.726 407.133 340.542 407.612 341.442 407.714C342.343 407.812 343.242 407.521 343.916 406.915L403.375 353.11C404.843 351.782 406.737 351.114 408.714 351.21C410.688 351.312 412.502 352.179 413.828 353.651C415.152 355.12 415.824 357.023 415.722 359.001C415.619 360.984 414.754 362.803 413.287 364.131Z" fill="#3A312A"/>
<path d="M360.402 305.898C357.949 305.898 355.518 306.004 353.108 306.216C374.461 312.515 392.39 326.85 403.404 345.724C405.18 345.045 407.083 344.748 409.028 344.854C412.707 345.045 416.068 346.657 418.542 349.392C423.616 355.033 423.151 363.77 417.527 368.86L413.553 372.465C414.652 377.979 415.223 383.683 415.223 389.515C415.223 428.959 389.007 462.231 353.108 472.813C355.518 473.025 357.949 473.131 360.402 473.131C406.364 473.131 443.764 435.617 443.764 389.515C443.764 343.412 406.364 305.898 360.402 305.898Z" fill="#B9C239"/>
</svg>
